<svg xmlns="http://www.w3.org/2000/svg" width="870.186" height="492.637"><g transform="translate(-843.258 -210.099)"><circle cx="192.5" cy="192.5" r="192.5" transform="translate(1086 300)" fill="#ededed" opacity=".998"/><g fill="none" stroke="#000" stroke-linecap="round" stroke-linejoin="round" stroke-width="1.5"><path d="M1588.282 701.801s-41.055-12.441-62.205-21.772-65.316-28.613-65.316-28.613l-8.709-3.732a14.7 14.7 0 01-6.22 8.087c-4.976 3.11-5.6 5.6-11.819 4.976s-8.087 1.244-12.441-2.488-5.6-1.866-8.087-8.087-5.6-12.441-5.6-12.441 1.244 10.575-5.6 14.307-11.819 9.33-19.283 8.086-18.04-6.221-19.284-9.953 4.355-4.354-4.976-3.732-12.441 3.732-18.662 0-6.22-1.866-11.2-6.22-8.087-7.465-8.087-7.465.622 4.976-3.732 5.6-8.086 1.244-13.063-3.111-8.087-6.221-11.819-9.953a55.137 55.137 0 00-7.465-6.221s-13.685-3.732-24.882-5.6a84.959 84.959 0 00-27.993-.622c-10.575 1.244-14.929 3.111-26.748 4.355s-13.063 3.732-28.614 6.221-17.417 4.354-23.639 2.488-8.709-.622-16.8-6.221-18.662-12.441-18.662-12.441-44.788 43.544-57.851 52.252-32.969 28.614-36.7 32.347m689.868-135.608s-19.284 0-51.009-9.953-62.827-14.307-86.466-18.661-39.811-10.574-64.693-13.063-37.945-1.867-37.945-1.867 3.732-11.819-1.866-22.394-23.016-28.614-33.591-40.434-11.2-27.37-21.15-34.835a113.909 113.909 0 01-16.8-15.551s6.842-8.087 6.221-13.686-5.6-18.661-5.6-18.661 9.953-11.819 8.709-16.8-9.953-13.685-9.953-13.685 7.465-13.685 5.6-20.528-17.417-16.173-17.417-16.173 6.221-15.552 3.732-21.15-8.087-8.709-10.575-11.2-7.465-3.111-7.465-3.111l-1.244-53.5M1236.2 211l19.906 85.221 1.867 8.709s-23.016 19.906-33.591 30.481-19.906 22.394-29.236 31.724-14.929 22.394-19.284 27.993-10.575 13.685-10.575 13.685a22.314 22.314 0 00-12.442-3.732c-7.465 0-7.465-1.244-14.929 2.488s-11.819 3.732-14.929 8.087a21.8 21.8 0 00-3.732 7.465s-1.866-3.732-10.575-1.867-9.953 1.244-14.308 7.465-7.465 4.355-6.842 11.819 6.842 18.039 6.842 18.039a86.618 86.618 0 01-13.063-4.354c-7.465-3.111-6.843-6.221-13.685 0s-11.2 11.819-11.2 19.283-1.244 8.087 3.111 13.686 8.709 6.842 8.709 6.842l-9.953 8.087s-4.976-4.976-11.2-6.843-8.087-3.732-13.063-2.488-12.441 3.732-14.929 10.575-1.866 12.441-.622 18.039 2.488 10.575 2.488 10.575-102.639 67.8-115.08 76.513-61.583 44.788-61.583 44.788"/><path d="M1257.972 304.93s34.212-14.929 50.386-22.394 23.016-8.709 32.347-10.575 26.126-8.709 31.724-7.465m14.308 35.458s.622-3.732-11.819-.622-9.33 3.732-23.638 8.087-15.551 4.976-26.126 9.953-10.575 6.843-16.173 6.843m16.173 34.212a210.815 210.815 0 0025.5-9.953c14.929-6.842 13.685-7.465 24.26-9.33a222.805 222.805 0 0123.638-2.488m-69.044 63.448s9.331-5.6 21.772-13.685 7.465-6.843 19.284-9.953 16.8-4.355 20.527-5.6a82.835 82.835 0 008.709-3.732m-105.127 155.515c6.22 8.709 8.709 14.308 9.953 24.882s6.22 22.394 5.6 36.7 0 23.016 2.488 32.347a47.851 47.851 0 008.086 16.173m22.397-95.795s5.6 6.842 6.221 23.638 3.11 27.37 1.866 41.678-3.732 13.063 0 25.5 7.465 18.661 7.465 18.661m55.359-125.65s-11.819 15.551-13.685 27.992-5.6 36.7-3.732 54.119 5.6 36.7 5.6 36.7l5.6-1.867 1.862-22.392c1.244-14.929-.622-25.5 0-38.567s-1.244-27.993-1.244-31.725-2.488-14.307 5.599-24.26zm-345.863-26.749s11.819 6.843 21.15 9.953 15.552 5.6 15.552 8.709 2.488 8.709-7.465 5.6-10.575-3.111-20.528-6.843a111.862 111.862 0 01-18.662-9.33m36.079-43.546s5.6 0 13.685 4.355 7.465 4.354 14.308 7.465a55.215 55.215 0 0014.307 4.354m-17.418-51.634s1.244 4.354 14.308 8.709 5.6 4.976 19.283 8.709 13.063 4.354 19.906 4.354"/><path d="M1399.178 399.488s-8.087 4.354-21.772 10.575-14.929 6.843-29.236 13.685-15.552 9.953-29.237 15.552-9.953 3.732-25.5 9.953-24.26 12.441-24.26 12.441-9.953 31.1-7.465 45.41 3.732 22.394 6.842 39.189 3.732 29.237 6.843 44.166 4.354 23.016 9.33 28.614m-15.554-157.385a219.153 219.153 0 00-23.016-18.662c-11.819-8.087-15.552-9.331-32.347-15.552s-20.528-4.977-30.481-9.953-18.039-8.709-18.039-8.709m284.9 65.939s.622 11.819 3.111 28.615 9.33 27.37 9.33 43.544 3.732 32.969 0 51.008-9.953 48.52-10.575 49.764m20.529-134.986l-18.04-1.244m-320.358 74.025l-16.795 21.772m-96.419-75.269a94.451 94.451 0 0031.1 19.283c18.662 6.843 11.819 6.22 37.945 14.929s25.5 4.976 37.323 12.442 8.086 9.953 20.527 17.417a115.424 115.424 0 0022.395 10.575"/><path d="M1332 530.113c1.867-4.976 6.221-8.709 5.6-22.394s6.221-10.575-2.488-19.283m52.245 42.3c3.111-8.709 8.087-7.465 6.22-19.906s2.488-13.064-10.575-21.772m-92.683-4.976s6.842 11.2 4.354 19.906 2.488 6.843-4.354 11.819m11.197-102.639c-6.843 6.842-14.308 6.22-13.063 15.551s3.732 13.685 3.732 13.685m4.976-69.67c-11.819 3.11-14.929.622-16.173 11.2s-1.244 16.8 1.244 20.528m3.732-64.075c-9.33 3.11-13.685 0-12.441 10.575s3.111 13.063 8.087 13.685m-160.49 144.317c19.906 11.2 11.819 15.552 27.37 13.063s16.8-6.843 16.173-11.819m183.507-234.514c2.488 6.843 7.465 13.685 6.842 18.662m-18.662-13.686c3.732 8.087 7.465 11.819 7.465 11.819m34.209 13.685c3.732 9.331 7.465 16.8 7.465 16.8l3.732 6.221m-15.547 19.279c2.488 6.843 6.843 15.552 6.843 15.552m-11.197 22.393c3.11 8.086 5.6 14.929 5.6 14.929m49.762 195.325c8.709-.622 18.04-.622 18.04-.622l6.843-.622m-90.198 19.285a44.447 44.447 0 0112.441 1.244 116.919 116.919 0 0011.819 1.866m-66.56-13.691c4.976 1.244 6.221 1.244 9.331 2.488a43.323 43.323 0 008.705 1.872m-14.926-11.82l8.709 2.488m-49.143-20.527c8.709 4.354 13.063 6.842 15.552 6.22m65.316 19.284c4.976 0 8.086-.622 11.2 0m53.493-18.039c3.111-2.488 3.732-2.488 10.575-2.488a75.235 75.235 0 0113.063 1.244m-413.666-79.001c-4.976 9.33-6.22 9.953-5.6 15.551m65.549 33.649c11.279 5.205 8.676 10.411 19.954 10.411s13.882 3.47 22.557-1.735m117.125-243.792c2.6 8.676 3.471 13.014 9.543 12.146s5.206 1.735 11.279-4.338"/></g></g></svg>