<svg xmlns="http://www.w3.org/2000/svg" width="76" height="76" viewBox="0 0 76 76">
  <g id="Сгруппировать_67" data-name="Сгруппировать 67" transform="translate(-278 -452)">
    <circle id="Эллипс_7" data-name="Эллипс 7" cx="38" cy="38" r="38" transform="translate(278 452)" fill="#292929"/>
    <g id="Сгруппировать_26" data-name="Сгруппировать 26" transform="translate(300.244 474.818)">
      <path id="Контур_370" data-name="Контур 370" d="M347.2,381.38H322.3a3.366,3.366,0,0,0-3.312,3.419v18.916a3.366,3.366,0,0,0,3.312,3.419h24.9a3.366,3.366,0,0,0,3.312-3.419V384.8A3.366,3.366,0,0,0,347.2,381.38Zm-1.656,20.606-21.674.047.081-15.508,3.18-.016H341.7l3.845-.03Z" transform="translate(-318.988 -381.38)" fill="#ffde1a"/>
      <circle id="Эллипс_27" data-name="Эллипс 27" cx="2.163" cy="2.163" r="2.163" transform="translate(0.055 27.19)" fill="#ffde1a"/>
      <circle id="Эллипс_28" data-name="Эллипс 28" cx="2.163" cy="2.163" r="2.163" transform="translate(27.198 27.19)" fill="#ffde1a"/>
    </g>
  </g>
</svg>
