<svg xmlns="http://www.w3.org/2000/svg" xmlns:xlink="http://www.w3.org/1999/xlink" width="122" height="122" viewBox="0 0 122 122">
  <defs>
    <clipPath id="clip-path">
      <circle cx="61" cy="61" r="61" transform="translate(83 706.244)" fill="#292929"/>
    </clipPath>
  </defs>
  <g transform="translate(-278 -333)">
    <circle cx="61" cy="61" r="61" transform="translate(278 333)" fill="#ffe202" opacity="0.302"/>
    <g transform="translate(195 -373.244)" clip-path="url(#clip-path)">
      <path d="M-6254.31,91.572h-51.744s0-.014-.006-.041h-51.9a6.658,6.658,0,0,1,3.878-6.729c4.6-2.4,29.594-13.969,29.594-13.969s3.229-4.876,2.112-7.469l2.745-.974.842-7.746s-2.834-3.683-4.608-11.311c0,0-1.611,1.148-2.887-4.739s-1.361-8.572,1.132-7.769c0,0-.018-.143-.042-.407-2.317-5.4-3.416-12.314-2.022-21.1,0,0,3.6,2.638,9.6-4.359,5.648-6.593,23.5-7.594,27.8,3.058,0,0,10.266,6.752,3.738,22.7,1.348.337,1.106,3.014.053,7.871-1.275,5.887-2.887,4.739-2.887,4.739-1.772,7.628-4.607,11.311-4.607,11.311l.84,7.746,2.747.974c-1.118,2.593,2.111,7.469,2.111,7.469s3.275,1.516,7.67,3.563c4.325-2.015,7.531-3.5,7.531-3.5a11.038,11.038,0,0,1,1.542-5.246c1.6-2.779,3.31-3.187,3.31-3.187l.416-3.82c-10.608-1.722-13.609-5.467-13.609-5.467,1.971-1.351,3.582-5.4,4.423-19.535C-6274.393-2.53-6254.31.95-6254.31.95s20.082-3.48,22.23,32.693c.839,14.132,2.451,18.184,4.422,19.535,0,0-3,3.745-13.608,5.467l.414,3.82s1.712.407,3.313,3.187A11.059,11.059,0,0,1-6236,70.9s24.97,11.557,29.561,13.954a6.65,6.65,0,0,1,3.874,6.72Z" transform="translate(6424.262 736.672)" fill="#ffde1a" stroke="rgba(0,0,0,0)" stroke-miterlimit="10" stroke-width="1"/>
    </g>
  </g>
</svg>
