<svg xmlns="http://www.w3.org/2000/svg" width="176.377" height="24.216" viewBox="0 0 176.377 24.216">
    <g id="group_63" transform="translate(-140 -38.462)">
        <path d="M268.752,283.19H255.273l-10.019,8.094V283.19h-10.7v23.3h10.7v-5.418l4.112-3.2,7.082,8.616h13.609l-12.6-14.719Z" transform="translate(-57.127 -244.728)" fill="#2e2e2d"/>
        <path d="M299.118,295.331c0,2.9-2.186,4.308-6,4.308-3.884,0-6-1.4-6-4.308V283.19H276.4v12.631c0,8.648,5.482,11.585,16.709,11.585,11.161,0,16.709-2.937,16.709-11.585V283.19h-10.7Z" transform="translate(-64.455 -244.728)" fill="#2e2e2d"/>
        <path d="M299.118,295.331c0,2.9-2.186,4.308-6,4.308-3.884,0-6-1.4-6-4.308V283.19H276.4v12.631c0,8.648,5.482,11.585,16.709,11.585,11.161,0,16.709-2.937,16.709-11.585V283.19h-10.7Z" transform="translate(-64.455 -244.728)" fill="#2e2e2d"/>
        <path d="M268.752,283.19H255.273l-10.019,8.094V283.19h-10.7v23.3h10.7v-5.418l4.112-3.2,7.082,8.616h13.609l-12.6-14.719Z" transform="translate(-57.127 -244.728)" fill="#2e2e2d"/>
        <g id="group_22" transform="translate(247.453 38.462)">
            <path d="M342.159,283.19H319.445v23.3h10.7v-6.07h12.011c7.636,0,10.377-2.709,10.377-8.551C352.537,285.931,349.8,283.19,342.159,283.19Zm-3.917,10.965h-8.093v-4.308h8.093c1.731,0,2.579.718,2.579,2.154S339.94,294.155,338.242,294.155Z" transform="translate(-319.445 -283.19)" fill="#2e2e2d"/>
            <path d="M390.116,298.366v-.326c3.166-.784,4.993-2.709,4.993-6.723,0-5.483-2.805-8.127-9.985-8.127H361.3v23.3H372v-5.939h7.539l3.785,5.939H395.7Zm-9.236-3.981H372v-3.851h8.877c1.534,0,2.285.652,2.285,1.925S382.415,294.385,380.88,294.385Z" transform="translate(-326.774 -283.19)" fill="#2e2e2d"/>
        </g>
        <g id="group_23" transform="translate(140 38.462)">
            <path d="M214.825,288.412a5.223,5.223,0,1,0,5.232-5.222h-.016A5.223,5.223,0,0,0,214.825,288.412Z" transform="translate(-193.673 -283.19)" fill="#ffde1a"/>
            <path d="M220.048,298.775A5.223,5.223,0,1,0,225.271,304,5.223,5.223,0,0,0,220.048,298.775Z" transform="translate(-193.673 -285.919)" fill="#ffde1a"/>
            <path d="M220.048,298.775A5.223,5.223,0,1,0,225.271,304,5.223,5.223,0,0,0,220.048,298.775Z" transform="translate(-193.673 -285.919)" fill="#ffde1a"/>
            <path d="M189.183,288.412a5.223,5.223,0,1,0,5.231-5.222H194.4A5.222,5.222,0,0,0,189.183,288.412Z" transform="translate(-189.183 -283.19)" fill="#ffde1a"/>
            <path d="M194.405,298.775A5.223,5.223,0,1,0,199.629,304,5.223,5.223,0,0,0,194.405,298.775Z" transform="translate(-189.183 -285.919)" fill="#ffde1a"/>
            <path d="M194.405,298.775A5.223,5.223,0,1,0,199.629,304,5.223,5.223,0,0,0,194.405,298.775Z" transform="translate(-189.183 -285.919)" fill="#ffde1a"/>
        </g>
    </g>
</svg>
