<svg xmlns="http://www.w3.org/2000/svg" viewBox="0 0 927.672 590.374"><g transform="translate(-13172.328 -2193.419)"><path d="M13328.151 2276.933l9.627-2.476 12.1 1.925 13.478-6.051v6.051l10.177-5.226 3.3 6.877 4.126-1.1-3.851-10.453-6.051-3.576 2.751-5.5-5.776.825 1.65-9.077-6.327 5.226-3.851 1.925-12.928-3.026-15.129-7.427-10.728-6.877-4.4-1.375 2.476 8.252 15.129 6.051-2.476 3.851 6.051 1.65-1.375 4.951-6.051 4.4-.55 3.576-9.077 4.4zm152.112 127.63l7.427 6.327-3.3 2.476 3.576 7.152 4.126 9.627 2.476-2.751 1.65 5.776-5.226.55-.55 4.676-5.776.825-.275 3.3 11.278-.825 6.051 6.877-2.751 1.1.55 5.226-5.5 1.65-.55 4.676-6.051 4.126 2.476 2.476 9.627-3.576.825 3.3 9.352-.825 8.252.825 1.651 6.6 4.676 4.126-2.476 3.576 9.077 4.951 6.051-8.252 4.126-2.2-7.152-2.476-2.2-8.527 6.6 1.65 4.4-4.676-1.65-1.925-6.327-3.3-.275-5.5 8.527-5.226-5.5-5.5h-11.829l-6.327-8.527-7.427 6.877-6.051.825-1.1-10.177-8.8-6.6-3.3-1.375-5.226-7.977 3.576-4.126-7.977-8.252zm286.619 177.693s-5.364 9.077-7.839-1.65l-2.476-10.727-6.6-7.015 2.475-5.364h-8.251l-1.238 6.19-12.378 1.238-7.014 2.888-5.364-6.6-5.777 12.791 8.665 7.427v8.665l-9.077 3.714 12.791 13.615h11.965l19.943 4.814 14.3-2.338 2.476-17.742 8.664-7.427 12.791-8.665 2.888-9.49 6.189 1.651-11.553 15.266 2.063 7.014-6.6 13.2-5.364 3.3-.825 10.315-.412 4.951-3.714 4.126-4.539 13.2-4.126 6.189-4.539 9.9 2.475 4.126 3.714-4.951 7.839 6.6 2.476-8.252.413-3.713 6.6-1.651 1.651-8.664 4.951-.413-1.651 15.266-2.475 8.664-6.189 6.6h-19.8l-2.883 6.516-6.607 14.939 7.014 3.714.413-12.378 5.364-5.776 16.092 1.238 7.839 3.714 7.427 9.077 10.315 1.238 6.189 4.539 4.126-5.364-11.553-3.714-5.776-5.776 6.189-21.455 1.238 18.98h7.014l-.825-20.631 5.776.826 1.238 9.489 8.665 12.791 6.6 1.238-1.65-16.916-11.553-19.8-8.665 1.238.825-18.98 6.189.413 2.476-12.378 5.776-15.266-2.888-10.728h8.664l11.14 2.063 2.476 4.126-3.3 1.65 9.9 14.441-12.79-3.3h-9.077l-5.776 10.315-1.651 16.5 3.3 13.616 6.189 11.553 5.364 10.315 11.966 3.3 4.539-11.966.413-11.553 11.14 4.951h8.665l-1.238-4.539-14.026-3.705-2.476-2.888 4.539-1.651-4.951-27.644 2.888-9.077 2.063 10.315 4.126 2.888.825 4.951 2.063 8.252 5.364 4.539 14.853 1.651 1.651 5.776 15.266.825s7.014-2.476 8.665-3.3 8.664-3.3 9.9-3.713 13.615-2.888 13.615-2.888 4.539-1.238 4.539-3.714 1.65-16.091 1.65-16.091l-11.553-3.3-8.252 1.651-4.539 10.315s-7.015 2.475-8.665 1.65-10.315-2.888-10.315-2.888l-9.49 2.063-8.665-4.539-9.49-7.014-3.3-4.539 4.126-2.476-4.126-8.252-7.011-11.142 8.252-.825 5.364.825s5.776-1.238 4.951-3.3-2.067-11.55-2.067-11.55l9.489-.825-2.063-7.014-15.266-.412-8.665-5.776 4.539-2.888-1.65-8.252-13.616-.825-14.854-.825-6.189-5.364-5.364-5.776-5.364 10.315 2.063 12.378 6.6 6.19v8.252c-2.888-2.063-6.6-6.189-7.015-8.252s-4.539-6.6-4.539-8.252-2.063-6.6-2.063-6.6l-10.315.825-12.791 11.415-17.741 3.851z" fill="#d1d1d1"/><g fill="none" stroke="#000" stroke-miterlimit="10" stroke-width="1.5"><path d="M13492.917 2436.196l-14.028-27.232-32.6-24.756-33.829-34.658-4.123-13.616-5.776-4.951-5.776-15.679-7.014-11.553-3.713-11.14-2.888-6.189-5.776-17.742-15.272-2.06-7.014-.413-17.329-13.2-10.315-7.014-12.378-2.888-10.728-23.106-15.266-11.553h-6.189l-6.6 2.888-6.189-9.9-9.077-7.434"/><path d="M13357.584 2195.237l-9.9 8.665 5.364 32.6 2.476 18.98-2.063 7.427-11.14 3.713-10.728 2.476-25.171 15.264-15.679 16.091-9.49 4.126-9.077 10.728-11.965 5.364-5.776 9.077-13.619 3.297v12.378l-6.6 9.077-8.665-5.776-7.427-.413-5.776 6.6-9.9 11.553-18.154 10.315-10.315 2.476-.825 3.713 9.077 8.665 2.476 4.951 6.189 2.888 6.189-2.888h4.539l3.713 2.888 11.14 1.238 3.3 6.189 4.539-4.951.825 2.888.413 3.3 15.679.413 7.839 5.776 8.252 3.3 14.852 1.237 8.665-7.427 7.427 3.3 5.364.413 7.427-7.839 3.713 4.126 4.539-.825 3.713-2.476h3.3l25.581-8.665 7.427 1.65 5.364-1.238 15.679 3.3 9.9 6.189 20.217-7.427 7.014 4.951 10.315 2.476 11.14-.825 12.378 1.65 28.057 17.742 23.518 8.252 21.868 14.028-.413 5.364 4.951 3.3 6.6-7.564 3.026-5.5 3.851-1.1 4.676-3.851 3.3-3.3.275-4.951 9.077-10.453 6.051-4.4 9.9-3.026 18.154-12.928 6.877-7.427.275-5.5 3.576-10.453 12.378-7.152h4.126l2.751-1.375 5.5 5.226 9.627 6.877 8.8 5.5 3.026 1.65 1.375-11.828 1.375-10.177 9.077-10.728.55-8.252-1.375-4.676 1.925-2.2-1.65-4.676 6.877-2.2 22.556-23.931 8.527-4.951 10.728-.275 19.255-18.98 15.679-5.5 16.5-3.576"/><path d="M13518.085 2458.064l-6.189 22.143-.275 3.576-2.476 5.5-6.327 11.278-2.2 8.252-1.375 22.555-.275 13.2-.55 5.776 3.026 7.977 1.65 14.028.55 5.5 3.574 7.982-.55 6.327-11.553 9.9-6.877 13.478-2.476 30.257 2.2 15.679.55 15.679m133.136 31.911l19.8-7.977 20.63-1.925 8.252-4.126 3.3-9.627 1.65-22.28 1.375-10.728 11.553-13.753 13.478-7.977 14.028-3.851 18.154-.825 17.879-1.375 9.077-4.4 2.476-6.6-6.6-1.375-10.728-3.026-7.152-4.951-25.581-3.576-7.152-6.877v-8.252l2.751-18.154-1.925-5.5-8.252-8.8-6.6-9.627-6.326-4.4-7.977-6.6-16.229-.275-5.5-2.751-8.8-14.854-11.278-5.226-7.7.275-5.226-3.3-11.828-7.7-26.406-12.1-13.2-5.5-13.478-5.776-15.13-9.647-14.3-6.6-5.5 2.751-3.851-2.888m13.469-14.166l15.4 5.5 11.965 2.888 26.819 6.6 16.5 1.238 16.917 1.238 14.854 7.839 20.63 3.713 18.154 2.888 22.28 1.238 6.6 3.3 12.791-2.063 12.791 10.728 13.616 7.427 3.713 6.189 4.539 4.539 15.679-3.713 15.679 1.65 7.839 10.315 9.9 11.965 6.189 8.252-2.476 9.49 4.126 5.776"/></g><g fill="none" stroke="#000" stroke-miterlimit="10" stroke-width="1.5"><path d="M14048.001 2399.337l-8.252 5.5-5.78 5.231-5.5 10.728-5.5 6.051-8.8 3.026-17.6-.55-9.627 4.4-11.828-.55h-10.453l-14.029 6.877-15.128 10.177-22.005 15.679-25.856 15.954-20.355 4.676-14.579 2.751-8.8 7.977-1.1 11s1.651 11.553 1.651 14.854-4.677 8.8-4.677 8.8l-11.278 6.877-11.278 8.527-9.9 4.4-9.9 9.352-13.2 2.751-5.227 4.951-5.226 11-.275 8.252-10.178 25.582 6.464 7.839 9.49 8.252 19.392-.413v3.713l-2.063 4.951-1.238 20.217 3.3 35.071-9.9 12.378-6.189 3.714-24.756 5.364-4.125 6.189-14.029.825-19.8 27.644-7.015 5.776"/><path d="M13802.778 2555.437l5.364 14.854 10.315 4.951 6.189 16.5-4.539 16.5-2.888 21.043-.825 31.36 4.126 28.057 4.539 29.707 2.888 22.693 18.567 28.882 17.742 13.2"/><path d="M13798.652 2629.293l16.5-10.728 5.364.413 10.315 3.3 27.644-2.476 6.6 1.238 2.476 7.014-3.3 7.014 4.539 7.839 11.553 3.3 18.155 2.063 31.357-8.665 30.12 23.931 31.77 22.28-.413 11.14 4.539 4.539 4.951-12.791 11.14-8.252m-376.012-171.089l5.914 15.541v6.6l26.406 9.9.825 7.839 5.364-2.888 10.315 4.126 13.891 2.613"/></g><text transform="translate(13896 2568)" fill="#292929" font-size="16" font-family="BCVafleClassic-Regular, BC Vafle Classic"><tspan x="0" y="16">Ostrava</tspan></text><text transform="translate(13518 2484)" fill="#292929" font-size="16" font-family="BCVafleClassic-Regular, BC Vafle Classic"><tspan x="0" y="16">Opava</tspan></text><text transform="translate(13324 2286)" fill="#292929" font-size="16" font-family="BCVafleClassic-Regular, BC Vafle Classic"><tspan x="0" y="16">Krnov</tspan></text><circle cx="8.5" cy="8.5" r="8.5" transform="translate(13526 2467)" fill="#ffe202"/></g></svg>