<svg xmlns="http://www.w3.org/2000/svg" xmlns:xlink="http://www.w3.org/1999/xlink"><defs>
    <clipPath id="clip-path">
      <circle cx="61" cy="61" r="61" transform="translate(83 706.244)" fill="#292929"/>
    </clipPath>
  
    <clipPath id="clip-path">
      <circle cx="61" cy="61" r="61" transform="translate(6200 333.244)" fill="#292929"/>
    </clipPath>
  
    <clipPath id="clip-path">
      <circle cx="61" cy="61" r="61" transform="translate(65 333.244)" fill="#888"/>
    </clipPath>
  </defs><symbol id="cargo-icon" viewBox="0 0 122 122">
  <g id="group_44" transform="translate(-692 -1449)">
    <circle cx="61" cy="61" r="61" transform="translate(692 1449)" fill="#ffde1a"/>
    <g id="group_26" transform="translate(409.081 1104.62)">
      <path d="M363.736,381.38h-39.5a5.339,5.339,0,0,0-5.252,5.422v30a5.338,5.338,0,0,0,5.252,5.422h39.5a5.339,5.339,0,0,0,5.252-5.422v-30A5.339,5.339,0,0,0,363.736,381.38Zm-2.626,32.679-34.372.074.129-24.594,5.043-.026h23.1l6.1-.048Z" fill="#fff"/>
      <circle cx="3.43" cy="3.43" r="3.43" transform="translate(319.075 424.5)" fill="#fff"/>
      <circle cx="3.43" cy="3.43" r="3.43" transform="translate(362.12 424.5)" fill="#fff"/>
    </g>
  </g>
</symbol><symbol id="couple-user-icon" viewBox="0 0 122 122">
  
  <g transform="translate(-278 -333)">
    <circle cx="61" cy="61" r="61" transform="translate(278 333)" fill="#ffe202" opacity="0.302"/>
    <g transform="translate(195 -373.244)" clip-path="url(#clip-path)">
      <path d="M-6254.31,91.572h-51.744s0-.014-.006-.041h-51.9a6.658,6.658,0,0,1,3.878-6.729c4.6-2.4,29.594-13.969,29.594-13.969s3.229-4.876,2.112-7.469l2.745-.974.842-7.746s-2.834-3.683-4.608-11.311c0,0-1.611,1.148-2.887-4.739s-1.361-8.572,1.132-7.769c0,0-.018-.143-.042-.407-2.317-5.4-3.416-12.314-2.022-21.1,0,0,3.6,2.638,9.6-4.359,5.648-6.593,23.5-7.594,27.8,3.058,0,0,10.266,6.752,3.738,22.7,1.348.337,1.106,3.014.053,7.871-1.275,5.887-2.887,4.739-2.887,4.739-1.772,7.628-4.607,11.311-4.607,11.311l.84,7.746,2.747.974c-1.118,2.593,2.111,7.469,2.111,7.469s3.275,1.516,7.67,3.563c4.325-2.015,7.531-3.5,7.531-3.5a11.038,11.038,0,0,1,1.542-5.246c1.6-2.779,3.31-3.187,3.31-3.187l.416-3.82c-10.608-1.722-13.609-5.467-13.609-5.467,1.971-1.351,3.582-5.4,4.423-19.535C-6274.393-2.53-6254.31.95-6254.31.95s20.082-3.48,22.23,32.693c.839,14.132,2.451,18.184,4.422,19.535,0,0-3,3.745-13.608,5.467l.414,3.82s1.712.407,3.313,3.187A11.059,11.059,0,0,1-6236,70.9s24.97,11.557,29.561,13.954a6.65,6.65,0,0,1,3.874,6.72Z" transform="translate(6424.262 736.672)" fill="#ffde1a" stroke="rgba(0,0,0,0)" stroke-miterlimit="10" stroke-width="1"/>
    </g>
  </g>
</symbol><symbol id="female-user-icon" viewBox="0 0 122 122">
  
  <g id="group_56" transform="translate(0 -333)">
    <circle cx="61" cy="61" r="61" transform="translate(0 333)" fill="#ffe202" opacity="0.302"/>
    <g transform="translate(-6200 -0.244)" clip-path="url(#clip-path)">
      <g transform="translate(6200 349.672)">
        <path d="M1681.853,411.068c-5.359-2.788-34.5-16.239-34.5-16.239a12.83,12.83,0,0,0-1.8-6.106c-1.866-3.234-3.864-3.708-3.864-3.708l-.484-4.447c12.38-2,15.884-6.362,15.884-6.362-2.3-1.572-4.182-6.288-5.162-22.735-2.508-42.1-25.948-38.048-25.948-38.048s-23.44-4.051-25.948,38.048c-.98,16.447-2.862,21.163-5.162,22.735,0,0,3.5,4.359,15.884,6.362l-.484,4.447s-2,.474-3.864,3.708a12.829,12.829,0,0,0-1.8,6.106s-29.145,13.45-34.5,16.239a7.732,7.732,0,0,0-4.521,7.821h120.8A7.733,7.733,0,0,0,1681.853,411.068Z" transform="translate(-1565.53 -313.318)" fill="#ffde1a" fill-rule="evenodd"/>
      </g>
    </g>
  </g>
</symbol><symbol id="glass-icon" viewBox="0 0 122 122">
  <g id="group_65" transform="translate(-1106 -1449)">
    <circle cx="61" cy="61" r="61" transform="translate(1106 1449)" fill="#ffde1a"/>
    <path d="M305.822,381.38h-39.5a5.252,5.252,0,0,0-5.253,5.252v39.5a5.253,5.253,0,0,0,5.253,5.252h39.5a5.252,5.252,0,0,0,5.252-5.252v-39.5A5.252,5.252,0,0,0,305.822,381.38Zm-36.87,7.9,5.044-.025h8.317v34.257l-13.489.027ZM303.2,423.471l-13.36.029V389.258H297.1l6.1-.047Z" transform="translate(880.926 1103.62)" fill="#fff"/>
  </g>
</symbol><symbol id="male-user-icon" viewBox="0 0 122 122">
  
  <g id="group_60" transform="translate(-278 -333.244)">
    <circle cx="61" cy="61" r="61" transform="translate(278 333.244)" fill="#ffe202" opacity="0.302"/>
    <g transform="translate(213)" clip-path="url(#clip-path)">
      <g transform="translate(65 348.719)">
        <path d="M192.043,402.675c-5.365-2.792-34.544-16.258-34.544-16.258s-3.769-5.674-2.464-8.692l-3.206-1.133-.982-9.015s3.309-4.286,5.377-13.164c0,0,1.88,1.335,3.37-5.516,1.229-5.652,1.512-8.767-.062-9.16,7.618-18.567-4.363-26.423-4.363-26.423-5.025-12.4-25.858-11.233-32.451-3.56-7,8.144-11.2,5.074-11.2,5.074-1.626,10.223-.343,18.266,2.36,24.553.029.309.05.475.05.475-2.911-.934-2.812,2.19-1.322,9.041s3.371,5.516,3.371,5.516c2.069,8.878,5.377,13.164,5.377,13.164l-.982,9.015-3.205,1.133c1.305,3.018-2.464,8.692-2.464,8.692s-29.179,13.466-34.544,16.258a7.741,7.741,0,0,0-4.526,7.83H196.569A7.741,7.741,0,0,0,192.043,402.675Z" transform="translate(-75.586 -303.98)" fill="#ffde1a" fill-rule="evenodd"/>
      </g>
    </g>
  </g>
</symbol><symbol id="manipulation-icon" viewBox="0 0 122 122">
  <g id="group_41" transform="translate(-1520 -1449)">
    <circle cx="61" cy="61" r="61" transform="translate(1520 1449)" fill="#ffde1a"/>
    <path d="M295.289,274.524V282.4h9.659L276.8,310.547v-9.659h-7.878v18.383a5.252,5.252,0,0,0,5.253,5.252h18.382v-7.878H281.845l29.2-29.2v10.713h7.878V279.776a5.252,5.252,0,0,0-5.252-5.252Z" transform="translate(1287.077 1210.977)" fill="#fff"/>
  </g>
</symbol><symbol id="youtube-icon" viewBox="0 0 64 63">
  <g id="group_66" transform="translate(-145 -4081.5)">
    <ellipse cx="32" cy="31.5" rx="32" ry="31.5" transform="translate(145 4081.5)" fill="#292929"/>
    <path d="M401.578,286.311a2.92,2.92,0,0,0-2.055-2.054c-1.824-.5-9.119-.5-9.119-.5s-7.3,0-9.119.48a2.979,2.979,0,0,0-2.054,2.073,32.956,32.956,0,0,0,0,11.212,2.92,2.92,0,0,0,2.055,2.055c1.842.5,9.119.5,9.119.5s7.295,0,9.119-.48a2.919,2.919,0,0,0,2.055-2.054,30.794,30.794,0,0,0,.48-5.606A29.232,29.232,0,0,0,401.578,286.311Zm-13.5,9.1v-6.988l6.067,3.494Z" transform="translate(-213.5 3820.888)" fill="#fff"/>
  </g>
</symbol></svg>