<svg xmlns="http://www.w3.org/2000/svg" xmlns:xlink="http://www.w3.org/1999/xlink"><defs><clipPath id="a"><circle cx="61" cy="61" r="61" transform="translate(83 706.244)" fill="#292929"/></clipPath><clipPath id="a"><circle cx="61" cy="61" r="61" transform="translate(6200 333.244)" fill="#292929"/></clipPath><clipPath id="a"><circle cx="61" cy="61" r="61" transform="translate(65 333.244)" fill="#888"/></clipPath></defs><symbol id="arrow-icon"><path d="M20.738 24.937l-4.2-4.2L37.276-.001l4.2 4.2z"/><path d="M24.938 20.737l-4.2 4.2L0 4.2 4.2 0z"/></symbol><symbol id="arrow-navigation-left-icon"><path d="M42.256 0A42.256 42.256 0 000 42.256a42.256 42.256 0 0042.256 42.256 42.256 42.256 0 0042.256-42.256A42.255 42.255 0 0042.256 0zm4.517 66.651L22.38 42.256l24.395-24.395 4.941 4.941L32.26 42.256 51.714 61.71z"/></symbol><symbol id="arrow-navigation-right-icon"><path d="M42.256 84.512a42.256 42.256 0 0042.256-42.256A42.256 42.256 0 0042.256 0 42.256 42.256 0 000 42.256a42.255 42.255 0 0042.256 42.256zm-4.517-66.651l24.393 24.395-24.395 24.395-4.941-4.941 19.456-19.454-19.454-19.454z"/></symbol><symbol id="cargo-dark-icon"><g transform="translate(-278 -452)"><circle cx="38" cy="38" r="38" transform="translate(278 452)" fill="#292929"/><g transform="translate(300.244 474.818)" fill="#ffde1a"><path d="M28.212 0h-24.9A3.366 3.366 0 000 3.419v18.916a3.366 3.366 0 003.312 3.419h24.9a3.366 3.366 0 003.312-3.419V3.42A3.366 3.366 0 0028.212 0zm-1.656 20.606l-21.674.047.081-15.508 3.18-.016h14.569l3.845-.03z"/><circle cx="2.163" cy="2.163" r="2.163" transform="translate(.055 27.19)"/><circle cx="2.163" cy="2.163" r="2.163" transform="translate(27.198 27.19)"/></g></g></symbol><symbol id="cargo-icon"><g transform="translate(-692 -1449)"><circle cx="61" cy="61" r="61" transform="translate(692 1449)" fill="#ffde1a"/><g transform="translate(409.081 1104.62)" fill="#fff"><path d="M363.736 381.38h-39.5a5.339 5.339 0 00-5.252 5.422v30a5.338 5.338 0 005.252 5.422h39.5a5.339 5.339 0 005.252-5.422v-30a5.339 5.339 0 00-5.252-5.422zm-2.626 32.679l-34.372.074.129-24.594 5.043-.026h23.1l6.1-.048z"/><circle cx="3.43" cy="3.43" r="3.43" transform="translate(319.075 424.5)"/><circle cx="3.43" cy="3.43" r="3.43" transform="translate(362.12 424.5)"/></g></g></symbol><symbol id="couple-user-icon"><g transform="translate(-278 -333)"><circle cx="61" cy="61" r="61" transform="translate(278 333)" fill="#ffe202" opacity=".302"/><g transform="translate(195 -373.244)" clip-path="url(#a)"><path d="M169.952 828.244h-51.744s0-.014-.006-.041h-51.9a6.658 6.658 0 013.878-6.729c4.6-2.4 29.594-13.969 29.594-13.969s3.229-4.876 2.112-7.469l2.745-.974.842-7.746s-2.834-3.683-4.608-11.311c0 0-1.611 1.148-2.887-4.739s-1.361-8.572 1.132-7.769c0 0-.018-.143-.042-.407-2.317-5.4-3.416-12.314-2.022-21.1 0 0 3.6 2.638 9.6-4.359 5.648-6.593 23.5-7.594 27.8 3.058 0 0 10.266 6.752 3.738 22.7 1.348.337 1.106 3.014.053 7.871-1.275 5.887-2.887 4.739-2.887 4.739-1.772 7.628-4.607 11.311-4.607 11.311l.84 7.746 2.747.974c-1.118 2.593 2.111 7.469 2.111 7.469s3.275 1.516 7.67 3.563c4.325-2.015 7.531-3.5 7.531-3.5a11.038 11.038 0 011.542-5.246c1.6-2.779 3.31-3.187 3.31-3.187l.416-3.82c-10.608-1.722-13.609-5.467-13.609-5.467 1.971-1.351 3.582-5.4 4.423-19.535 2.145-36.165 22.228-32.685 22.228-32.685s20.082-3.48 22.23 32.693c.839 14.132 2.451 18.184 4.422 19.535 0 0-3 3.745-13.608 5.467l.414 3.82s1.712.407 3.313 3.187a11.059 11.059 0 011.539 5.248s24.97 11.557 29.561 13.954a6.65 6.65 0 013.874 6.72z" fill="#ffde1a" stroke="rgba(0,0,0,0)" stroke-miterlimit="10"/></g></g></symbol><symbol id="female-user-icon"><g transform="translate(0 -333)"><circle cx="61" cy="61" r="61" transform="translate(0 333)" fill="#ffe202" opacity=".302"/><g transform="translate(-6200 -.244)" clip-path="url(#a)"><path d="M6316.323 447.422c-5.359-2.788-34.5-16.239-34.5-16.239a12.83 12.83 0 00-1.8-6.106c-1.866-3.234-3.864-3.708-3.864-3.708l-.484-4.447c12.38-2 15.884-6.362 15.884-6.362-2.3-1.572-4.182-6.288-5.162-22.735-2.508-42.1-25.948-38.048-25.948-38.048s-23.44-4.051-25.948 38.048c-.98 16.447-2.862 21.163-5.162 22.735 0 0 3.5 4.359 15.884 6.362l-.484 4.447s-2 .474-3.864 3.708a12.829 12.829 0 00-1.8 6.106s-29.145 13.45-34.5 16.239a7.732 7.732 0 00-4.521 7.821h120.8a7.733 7.733 0 00-4.531-7.821z" fill="#ffde1a" fill-rule="evenodd"/></g></g></symbol><symbol id="glass-dark-icon"><g transform="translate(-278 -1353)"><circle cx="38" cy="38" r="38" transform="translate(278 1353)" fill="#292929"/><path d="M328.634 1374.747h-25.5a3.391 3.391 0 00-3.391 3.39v25.5a3.391 3.391 0 003.391 3.39h25.5a3.391 3.391 0 003.39-3.39v-25.5a3.391 3.391 0 00-3.39-3.39zm-23.8 5.1l3.256-.016h5.369v22.116l-8.708.018zm22.106 22.07l-8.624.018v-22.1h4.688l3.936-.03z" fill="#ffde1a"/></g></symbol><symbol id="glass-icon"><g transform="translate(-1106 -1449)"><circle cx="61" cy="61" r="61" transform="translate(1106 1449)" fill="#ffde1a"/><path d="M1186.748 1485h-39.5a5.252 5.252 0 00-5.253 5.252v39.5a5.253 5.253 0 005.253 5.252h39.5a5.252 5.252 0 005.252-5.252v-39.5a5.252 5.252 0 00-5.252-5.252zm-36.87 7.9l5.044-.025h8.317v34.257l-13.489.027zm34.248 34.191l-13.36.029v-34.242h7.26l6.1-.047z" fill="#fff"/></g></symbol><symbol id="logo-icon"><path d="M71.625 0H58.146L48.127 8.094V0h-10.7v23.3h10.7v-5.418l4.112-3.2 7.082 8.616H72.93L60.33 8.579z" fill="#2e2e2d"/><path d="M94.663 12.141c0 2.9-2.186 4.308-6 4.308-3.884 0-6-1.4-6-4.308V0H71.945v12.631c0 8.648 5.482 11.585 16.709 11.585 11.161 0 16.709-2.937 16.709-11.585V0h-10.7z" fill="#2e2e2d"/><path d="M94.663 12.141c0 2.9-2.186 4.308-6 4.308-3.884 0-6-1.4-6-4.308V0H71.945v12.631c0 8.648 5.482 11.585 16.709 11.585 11.161 0 16.709-2.937 16.709-11.585V0h-10.7z" fill="#2e2e2d"/><path d="M71.625 0H58.146L48.127 8.094V0h-10.7v23.3h10.7v-5.418l4.112-3.2 7.082 8.616H72.93L60.33 8.579zm58.542 0h-22.714v23.3h10.7v-6.07h12.011c7.636 0 10.377-2.709 10.377-8.551C140.545 2.741 137.808 0 130.167 0zm-3.917 10.965h-8.093V6.657h8.093c1.731 0 2.579.718 2.579 2.154s-.881 2.154-2.579 2.154zm44.545 4.211v-.326c3.166-.784 4.993-2.709 4.993-6.723 0-5.483-2.805-8.127-9.985-8.127h-23.824v23.3h10.7v-5.939h7.539l3.785 5.939h12.376zm-9.236-3.981h-8.88V7.344h8.877c1.534 0 2.285.652 2.285 1.925s-.747 1.926-2.282 1.926z" fill="#2e2e2d"/><g fill="#ffde1a"><path d="M21.152 5.222A5.223 5.223 0 1026.384 0h-.016a5.223 5.223 0 00-5.216 5.222zm5.223 7.634a5.223 5.223 0 105.223 5.225 5.223 5.223 0 00-5.223-5.225z"/><path d="M26.375 12.856a5.223 5.223 0 105.223 5.225 5.223 5.223 0 00-5.223-5.225zM0 5.222A5.223 5.223 0 105.231 0h-.014A5.222 5.222 0 000 5.222zm5.222 7.634a5.223 5.223 0 105.224 5.225 5.223 5.223 0 00-5.224-5.225z"/><path d="M5.222 12.856a5.223 5.223 0 105.224 5.225 5.223 5.223 0 00-5.224-5.225z"/></g></symbol><symbol id="male-user-icon"><g transform="translate(-278 -333.244)"><circle cx="61" cy="61" r="61" transform="translate(278 333.244)" fill="#ffe202" opacity=".302"/><g transform="translate(213)" clip-path="url(#a)"><path d="M181.457 447.414c-5.365-2.792-34.544-16.258-34.544-16.258s-3.769-5.674-2.464-8.692l-3.206-1.133-.982-9.015s3.309-4.286 5.377-13.164c0 0 1.88 1.335 3.37-5.516 1.229-5.652 1.512-8.767-.062-9.16 7.618-18.567-4.363-26.423-4.363-26.423-5.025-12.4-25.858-11.233-32.451-3.56-7 8.144-11.2 5.074-11.2 5.074-1.626 10.223-.343 18.266 2.36 24.553.029.309.05.475.05.475-2.911-.934-2.812 2.19-1.322 9.041s3.371 5.516 3.371 5.516c2.069 8.878 5.377 13.164 5.377 13.164l-.982 9.015-3.205 1.133c1.305 3.018-2.464 8.692-2.464 8.692s-29.179 13.466-34.544 16.258a7.741 7.741 0 00-4.526 7.83h120.936a7.741 7.741 0 00-4.526-7.83z" fill="#ffde1a" fill-rule="evenodd"/></g></g></symbol><symbol id="manipulation-dark-icon"><g transform="translate(-278 -2252)"><circle cx="38" cy="38" r="38" transform="translate(278 2252)" fill="#292929"/><path d="M316.642 2274.616v4.881h5.984l-17.443 17.439v-5.984h-4.881v11.39a3.254 3.254 0 003.255 3.254h11.389v-4.881h-6.633l18.092-18.092v6.638h4.878v-11.39a3.254 3.254 0 00-3.254-3.254z" fill="#ffde1a"/></g></symbol><symbol id="manipulation-icon"><g transform="translate(-1520 -1449)"><circle cx="61" cy="61" r="61" transform="translate(1520 1449)" fill="#ffde1a"/><path d="M1582.366 1485.501v7.876h9.659l-28.148 28.147v-9.659h-7.878v18.383a5.252 5.252 0 005.253 5.252h18.382v-7.878h-10.712l29.2-29.2v10.713H1606v-18.382a5.252 5.252 0 00-5.252-5.252z" fill="#fff"/></g></symbol><symbol id="map-icon" viewBox="0 0 927.672 590.374"><g transform="translate(-13172.328 -2193.419)"><path d="M13328.151 2276.933l9.627-2.476 12.1 1.925 13.478-6.051v6.051l10.177-5.226 3.3 6.877 4.126-1.1-3.851-10.453-6.051-3.576 2.751-5.5-5.776.825 1.65-9.077-6.327 5.226-3.851 1.925-12.928-3.026-15.129-7.427-10.728-6.877-4.4-1.375 2.476 8.252 15.129 6.051-2.476 3.851 6.051 1.65-1.375 4.951-6.051 4.4-.55 3.576-9.077 4.4zm152.112 127.63l7.427 6.327-3.3 2.476 3.576 7.152 4.126 9.627 2.476-2.751 1.65 5.776-5.226.55-.55 4.676-5.776.825-.275 3.3 11.278-.825 6.051 6.877-2.751 1.1.55 5.226-5.5 1.65-.55 4.676-6.051 4.126 2.476 2.476 9.627-3.576.825 3.3 9.352-.825 8.252.825 1.651 6.6 4.676 4.126-2.476 3.576 9.077 4.951 6.051-8.252 4.126-2.2-7.152-2.476-2.2-8.527 6.6 1.65 4.4-4.676-1.65-1.925-6.327-3.3-.275-5.5 8.527-5.226-5.5-5.5h-11.829l-6.327-8.527-7.427 6.877-6.051.825-1.1-10.177-8.8-6.6-3.3-1.375-5.226-7.977 3.576-4.126-7.977-8.252zm286.619 177.693s-5.364 9.077-7.839-1.65l-2.476-10.727-6.6-7.015 2.475-5.364h-8.251l-1.238 6.19-12.378 1.238-7.014 2.888-5.364-6.6-5.777 12.791 8.665 7.427v8.665l-9.077 3.714 12.791 13.615h11.965l19.943 4.814 14.3-2.338 2.476-17.742 8.664-7.427 12.791-8.665 2.888-9.49 6.189 1.651-11.553 15.266 2.063 7.014-6.6 13.2-5.364 3.3-.825 10.315-.412 4.951-3.714 4.126-4.539 13.2-4.126 6.189-4.539 9.9 2.475 4.126 3.714-4.951 7.839 6.6 2.476-8.252.413-3.713 6.6-1.651 1.651-8.664 4.951-.413-1.651 15.266-2.475 8.664-6.189 6.6h-19.8l-2.883 6.516-6.607 14.939 7.014 3.714.413-12.378 5.364-5.776 16.092 1.238 7.839 3.714 7.427 9.077 10.315 1.238 6.189 4.539 4.126-5.364-11.553-3.714-5.776-5.776 6.189-21.455 1.238 18.98h7.014l-.825-20.631 5.776.826 1.238 9.489 8.665 12.791 6.6 1.238-1.65-16.916-11.553-19.8-8.665 1.238.825-18.98 6.189.413 2.476-12.378 5.776-15.266-2.888-10.728h8.664l11.14 2.063 2.476 4.126-3.3 1.65 9.9 14.441-12.79-3.3h-9.077l-5.776 10.315-1.651 16.5 3.3 13.616 6.189 11.553 5.364 10.315 11.966 3.3 4.539-11.966.413-11.553 11.14 4.951h8.665l-1.238-4.539-14.026-3.705-2.476-2.888 4.539-1.651-4.951-27.644 2.888-9.077 2.063 10.315 4.126 2.888.825 4.951 2.063 8.252 5.364 4.539 14.853 1.651 1.651 5.776 15.266.825s7.014-2.476 8.665-3.3 8.664-3.3 9.9-3.713 13.615-2.888 13.615-2.888 4.539-1.238 4.539-3.714 1.65-16.091 1.65-16.091l-11.553-3.3-8.252 1.651-4.539 10.315s-7.015 2.475-8.665 1.65-10.315-2.888-10.315-2.888l-9.49 2.063-8.665-4.539-9.49-7.014-3.3-4.539 4.126-2.476-4.126-8.252-7.011-11.142 8.252-.825 5.364.825s5.776-1.238 4.951-3.3-2.067-11.55-2.067-11.55l9.489-.825-2.063-7.014-15.266-.412-8.665-5.776 4.539-2.888-1.65-8.252-13.616-.825-14.854-.825-6.189-5.364-5.364-5.776-5.364 10.315 2.063 12.378 6.6 6.19v8.252c-2.888-2.063-6.6-6.189-7.015-8.252s-4.539-6.6-4.539-8.252-2.063-6.6-2.063-6.6l-10.315.825-12.791 11.415-17.741 3.851z" fill="#d1d1d1"/><g fill="none" stroke="#000" stroke-miterlimit="10" stroke-width="1.5"><path d="M13492.917 2436.196l-14.028-27.232-32.6-24.756-33.829-34.658-4.123-13.616-5.776-4.951-5.776-15.679-7.014-11.553-3.713-11.14-2.888-6.189-5.776-17.742-15.272-2.06-7.014-.413-17.329-13.2-10.315-7.014-12.378-2.888-10.728-23.106-15.266-11.553h-6.189l-6.6 2.888-6.189-9.9-9.077-7.434"/><path d="M13357.584 2195.237l-9.9 8.665 5.364 32.6 2.476 18.98-2.063 7.427-11.14 3.713-10.728 2.476-25.171 15.264-15.679 16.091-9.49 4.126-9.077 10.728-11.965 5.364-5.776 9.077-13.619 3.297v12.378l-6.6 9.077-8.665-5.776-7.427-.413-5.776 6.6-9.9 11.553-18.154 10.315-10.315 2.476-.825 3.713 9.077 8.665 2.476 4.951 6.189 2.888 6.189-2.888h4.539l3.713 2.888 11.14 1.238 3.3 6.189 4.539-4.951.825 2.888.413 3.3 15.679.413 7.839 5.776 8.252 3.3 14.852 1.237 8.665-7.427 7.427 3.3 5.364.413 7.427-7.839 3.713 4.126 4.539-.825 3.713-2.476h3.3l25.581-8.665 7.427 1.65 5.364-1.238 15.679 3.3 9.9 6.189 20.217-7.427 7.014 4.951 10.315 2.476 11.14-.825 12.378 1.65 28.057 17.742 23.518 8.252 21.868 14.028-.413 5.364 4.951 3.3 6.6-7.564 3.026-5.5 3.851-1.1 4.676-3.851 3.3-3.3.275-4.951 9.077-10.453 6.051-4.4 9.9-3.026 18.154-12.928 6.877-7.427.275-5.5 3.576-10.453 12.378-7.152h4.126l2.751-1.375 5.5 5.226 9.627 6.877 8.8 5.5 3.026 1.65 1.375-11.828 1.375-10.177 9.077-10.728.55-8.252-1.375-4.676 1.925-2.2-1.65-4.676 6.877-2.2 22.556-23.931 8.527-4.951 10.728-.275 19.255-18.98 15.679-5.5 16.5-3.576"/><path d="M13518.085 2458.064l-6.189 22.143-.275 3.576-2.476 5.5-6.327 11.278-2.2 8.252-1.375 22.555-.275 13.2-.55 5.776 3.026 7.977 1.65 14.028.55 5.5 3.574 7.982-.55 6.327-11.553 9.9-6.877 13.478-2.476 30.257 2.2 15.679.55 15.679m133.136 31.911l19.8-7.977 20.63-1.925 8.252-4.126 3.3-9.627 1.65-22.28 1.375-10.728 11.553-13.753 13.478-7.977 14.028-3.851 18.154-.825 17.879-1.375 9.077-4.4 2.476-6.6-6.6-1.375-10.728-3.026-7.152-4.951-25.581-3.576-7.152-6.877v-8.252l2.751-18.154-1.925-5.5-8.252-8.8-6.6-9.627-6.326-4.4-7.977-6.6-16.229-.275-5.5-2.751-8.8-14.854-11.278-5.226-7.7.275-5.226-3.3-11.828-7.7-26.406-12.1-13.2-5.5-13.478-5.776-15.13-9.647-14.3-6.6-5.5 2.751-3.851-2.888m13.469-14.166l15.4 5.5 11.965 2.888 26.819 6.6 16.5 1.238 16.917 1.238 14.854 7.839 20.63 3.713 18.154 2.888 22.28 1.238 6.6 3.3 12.791-2.063 12.791 10.728 13.616 7.427 3.713 6.189 4.539 4.539 15.679-3.713 15.679 1.65 7.839 10.315 9.9 11.965 6.189 8.252-2.476 9.49 4.126 5.776"/></g><g fill="none" stroke="#000" stroke-miterlimit="10" stroke-width="1.5"><path d="M14048.001 2399.337l-8.252 5.5-5.78 5.231-5.5 10.728-5.5 6.051-8.8 3.026-17.6-.55-9.627 4.4-11.828-.55h-10.453l-14.029 6.877-15.128 10.177-22.005 15.679-25.856 15.954-20.355 4.676-14.579 2.751-8.8 7.977-1.1 11s1.651 11.553 1.651 14.854-4.677 8.8-4.677 8.8l-11.278 6.877-11.278 8.527-9.9 4.4-9.9 9.352-13.2 2.751-5.227 4.951-5.226 11-.275 8.252-10.178 25.582 6.464 7.839 9.49 8.252 19.392-.413v3.713l-2.063 4.951-1.238 20.217 3.3 35.071-9.9 12.378-6.189 3.714-24.756 5.364-4.125 6.189-14.029.825-19.8 27.644-7.015 5.776"/><path d="M13802.778 2555.437l5.364 14.854 10.315 4.951 6.189 16.5-4.539 16.5-2.888 21.043-.825 31.36 4.126 28.057 4.539 29.707 2.888 22.693 18.567 28.882 17.742 13.2"/><path d="M13798.652 2629.293l16.5-10.728 5.364.413 10.315 3.3 27.644-2.476 6.6 1.238 2.476 7.014-3.3 7.014 4.539 7.839 11.553 3.3 18.155 2.063 31.357-8.665 30.12 23.931 31.77 22.28-.413 11.14 4.539 4.539 4.951-12.791 11.14-8.252m-376.012-171.089l5.914 15.541v6.6l26.406 9.9.825 7.839 5.364-2.888 10.315 4.126 13.891 2.613"/></g><text transform="translate(13896 2568)" fill="#292929" font-size="16" font-family="BCVafleClassic-Regular, BC Vafle Classic"><tspan x="0" y="16">Ostrava</tspan></text><text transform="translate(13518 2484)" fill="#292929" font-size="16" font-family="BCVafleClassic-Regular, BC Vafle Classic"><tspan x="0" y="16">Opava</tspan></text><text transform="translate(13324 2286)" fill="#292929" font-size="16" font-family="BCVafleClassic-Regular, BC Vafle Classic"><tspan x="0" y="16">Krnov</tspan></text><circle cx="8.5" cy="8.5" r="8.5" transform="translate(13526 2467)" fill="#ffe202"/></g></symbol><symbol id="team-background-icon"><g transform="translate(-632 -2203)"><circle cx="328.5" cy="328.5" r="328.5" transform="translate(632 2203)" fill="#ffde1a"/><g fill="#292929"><path d="M1040.203 2251.378h-22.549l-16.761 13.541v-13.541h-17.908v38.983h17.908v-9.063l6.879-5.351 11.847 14.414h22.767l-21.073-24.623z"/><path d="M1078.741 2271.688c0 4.859-3.657 7.206-10.045 7.206-6.5 0-10.045-2.347-10.045-7.206v-20.31h-17.91v21.131c0 14.468 9.172 19.381 27.954 19.381 18.672 0 27.954-4.913 27.954-19.381v-21.131h-17.908zm59.401-20.309h-38v38.984h17.907v-10.156h20.093c12.775 0 17.361-4.532 17.361-14.305 0-9.937-4.586-14.523-17.361-14.523zm-6.554 18.344h-13.539v-7.206h13.539c2.9 0 4.315 1.2 4.315 3.6s-1.474 3.606-4.315 3.606zm74.523 7.044v-.545c5.3-1.311 8.353-4.532 8.353-11.247 0-9.173-4.693-13.6-16.705-13.6h-39.857v38.983h17.908v-9.936h12.612l6.333 9.936h20.693zm-15.451-6.66h-14.85v-6.443h14.85c2.567 0 3.823 1.092 3.823 3.221s-1.256 3.222-3.823 3.222z"/></g><text transform="translate(1220 2335)" fill="#292929" font-size="54" font-family="SegoeUI, Segoe UI"><tspan x="-69.464" y="0">TEAM</tspan></text></g></symbol><symbol id="youtube-icon"><g transform="translate(-145 -4081.5)"><ellipse cx="32" cy="31.5" rx="32" ry="31.5" transform="translate(145 4081.5)"/><path d="M188.078 4107.199a2.92 2.92 0 00-2.055-2.054c-1.824-.5-9.119-.5-9.119-.5s-7.3 0-9.119.48a2.979 2.979 0 00-2.054 2.073 32.956 32.956 0 000 11.212 2.92 2.92 0 002.055 2.055c1.842.5 9.119.5 9.119.5s7.295 0 9.119-.48a2.919 2.919 0 002.055-2.054 30.794 30.794 0 00.48-5.606 29.232 29.232 0 00-.481-5.626zm-13.5 9.1v-6.988l6.067 3.494z" fill="#fff"/></g></symbol></svg>