<svg xmlns="http://www.w3.org/2000/svg" width="709" height="657"><g transform="translate(-632 -2203)"><circle cx="328.5" cy="328.5" r="328.5" transform="translate(632 2203)" fill="#ffde1a"/><g fill="#292929"><path d="M1040.203 2251.378h-22.549l-16.761 13.541v-13.541h-17.908v38.983h17.908v-9.063l6.879-5.351 11.847 14.414h22.767l-21.073-24.623z"/><path d="M1078.741 2271.688c0 4.859-3.657 7.206-10.045 7.206-6.5 0-10.045-2.347-10.045-7.206v-20.31h-17.91v21.131c0 14.468 9.172 19.381 27.954 19.381 18.672 0 27.954-4.913 27.954-19.381v-21.131h-17.908zm59.401-20.309h-38v38.984h17.907v-10.156h20.093c12.775 0 17.361-4.532 17.361-14.305 0-9.937-4.586-14.523-17.361-14.523zm-6.554 18.344h-13.539v-7.206h13.539c2.9 0 4.315 1.2 4.315 3.6s-1.474 3.606-4.315 3.606zm74.523 7.044v-.545c5.3-1.311 8.353-4.532 8.353-11.247 0-9.173-4.693-13.6-16.705-13.6h-39.857v38.983h17.908v-9.936h12.612l6.333 9.936h20.693zm-15.451-6.66h-14.85v-6.443h14.85c2.567 0 3.823 1.092 3.823 3.221s-1.256 3.222-3.823 3.222z"/></g><text transform="translate(1220 2335)" fill="#292929" font-size="54" font-family="SegoeUI, Segoe UI"><tspan x="-69.464" y="0">TEAM</tspan></text></g></svg>