<svg xmlns="http://www.w3.org/2000/svg" xmlns:xlink="http://www.w3.org/1999/xlink" width="122" height="122" viewBox="0 0 122 122">
  <defs>
    <clipPath id="clip-path">
      <circle cx="61" cy="61" r="61" transform="translate(6200 333.244)" fill="#292929"/>
    </clipPath>
  </defs>
  <g id="group_56" transform="translate(0 -333)">
    <circle cx="61" cy="61" r="61" transform="translate(0 333)" fill="#ffe202" opacity="0.302"/>
    <g transform="translate(-6200 -0.244)" clip-path="url(#clip-path)">
      <g transform="translate(6200 349.672)">
        <path d="M1681.853,411.068c-5.359-2.788-34.5-16.239-34.5-16.239a12.83,12.83,0,0,0-1.8-6.106c-1.866-3.234-3.864-3.708-3.864-3.708l-.484-4.447c12.38-2,15.884-6.362,15.884-6.362-2.3-1.572-4.182-6.288-5.162-22.735-2.508-42.1-25.948-38.048-25.948-38.048s-23.44-4.051-25.948,38.048c-.98,16.447-2.862,21.163-5.162,22.735,0,0,3.5,4.359,15.884,6.362l-.484,4.447s-2,.474-3.864,3.708a12.829,12.829,0,0,0-1.8,6.106s-29.145,13.45-34.5,16.239a7.732,7.732,0,0,0-4.521,7.821h120.8A7.733,7.733,0,0,0,1681.853,411.068Z" transform="translate(-1565.53 -313.318)" fill="#ffde1a" fill-rule="evenodd"/>
      </g>
    </g>
  </g>
</svg>
