<svg xmlns="http://www.w3.org/2000/svg" width="122" height="122" viewBox="0 0 122 122">
  <g id="group_65" transform="translate(-1106 -1449)">
    <circle cx="61" cy="61" r="61" transform="translate(1106 1449)" fill="#ffde1a"/>
    <path d="M305.822,381.38h-39.5a5.252,5.252,0,0,0-5.253,5.252v39.5a5.253,5.253,0,0,0,5.253,5.252h39.5a5.252,5.252,0,0,0,5.252-5.252v-39.5A5.252,5.252,0,0,0,305.822,381.38Zm-36.87,7.9,5.044-.025h8.317v34.257l-13.489.027ZM303.2,423.471l-13.36.029V389.258H297.1l6.1-.047Z" transform="translate(880.926 1103.62)" fill="#fff"/>
  </g>
</svg>
