<svg xmlns="http://www.w3.org/2000/svg" width="76" height="76" viewBox="0 0 76 76">
  <g id="Сгруппировать_68" data-name="Сгруппировать 68" transform="translate(-278 -1353)">
    <circle id="Эллипс_35" data-name="Эллипс 35" cx="38" cy="38" r="38" transform="translate(278 1353)" fill="#292929"/>
    <path id="Контур_378" data-name="Контур 378" d="M289.961,381.38h-25.5a3.391,3.391,0,0,0-3.391,3.39v25.5a3.391,3.391,0,0,0,3.391,3.39h25.5a3.391,3.391,0,0,0,3.39-3.39v-25.5A3.391,3.391,0,0,0,289.961,381.38Zm-23.8,5.1,3.256-.016h5.369V408.58l-8.708.018Zm22.106,22.07-8.624.018v-22.1h4.688l3.936-.03Z" transform="translate(38.673 993.367)" fill="#ffde1a"/>
  </g>
</svg>
