<svg xmlns="http://www.w3.org/2000/svg" width="824.536" height="748.814"><g transform="translate(-834.187 -191.607)"><circle cx="192.5" cy="192.5" r="192.5" transform="translate(1083 481)" fill="#ededed" opacity=".998"/><g transform="translate(432.887 -55.252)" fill="none" stroke="#000" stroke-linecap="round" stroke-linejoin="round" stroke-width="1.5"><path d="M1143.681 986.208l2.663-17.43-20.818-33.406s-2.663-4.357-12.346-8.472-106.754-44.057-106.754-44.057l-11.377 5.568-4.841 32.679 8.714 14.041 7.262 2.9 18.881 25.66a19.527 19.527 0 004.6 3.147c1.937.726 3.389 1.452 3.632 3.147s.484 3.873.484 3.873l44.541 21.061zm2.663-17.429l9.441-5.084m-1.694 9.44h19.124l30.5-23 .484-4.842"/><path d="M992.628 904.871l-15.977-3.631-12.83-5.809-53.74-24.208 14.282-110.141 8.23-67.3 15.977-13.556 9.2-.726 14.766-10.651 14.767-1.695 4.6-65.6-3.632-15.977 9.925-20.576s8.472-5.568 11.135-5.809 23.481 1.936 23.481 1.936 4.6.968 5.81 4.358 2.663 8.23 2.663 8.23 3.389-.726 4.115 2.421.242 4.6.242 4.6l-2.178.968.484 1.695s11.861-1.936 15.735 0 10.409 4.841 10.409 4.841 27.112-27.6 32.2-32.922 11.377-15.492 17.187-17.913 15.009-6.052 21.545-7.746 10.651-3.873 16.7-6.294 9.2-4.358 13.8-4.358 7.988.969 8.957 1.937 2.421.968 3.631 2.9 17.913 12.588 20.092 16.461 13.8 25.66 13.072 33.406 1.694 25.176.484 30.744-.242 15.25-.726 20.334-.242 6.052.242 12.1a42.94 42.94 0 01.242 7.5c0 4.115 2.178 8.715 2.421 12.346s-.484 4.6.726 6.294 4.841 1.695 4.358 4.6-.727 2.905-2.663 4.115-1.211 1.21.242 6.778 2.9 10.894 2.421 16.945-.485 10.651-1.211 13.8 0 1.452-.969 7.746-.241 9.2-3.631 11.862-3.389.968-7.02 6.778-2.905 5.083-5.084 9.441-1.695 6.052-2.9 10.893-2.663 9.2-4.115 14.766-2.178 8.957-2.9 12.588-.727 3.147 0 10.409 1.936 16.7 1.21 23 0 8.23.242 16.7 0 14.04.484 18.155 1.695 4.115 1.937 10.409 2.179 7.02.242 11.377a22.532 22.532 0 01-4.6 7.021c-1.21 1.452-.484 5.568-2.179 7.988s-2.9 2.9-3.873 4.357-1.694 2.9.242 6.778 4.358 4.357 3.389 7.5-1.695 3.389-4.6 6.052-2.178 5.084-4.115 8.715-2.179 4.841-3.147 6.536l11.861 5.326 9.925 11.619-31.711 22.028-17.188-1.695"/><path d="M924.364 761.08l45.994 16.219s8.472 1.695 7.5 7.747-14.04 110.385-14.04 110.385"/><path d="M968.42 776.331l12.588-12.83 46.962-.242 70.2-15.977 3.147-15.251 3.389-28.565-70.685 11.135-8.473-14.282-76.979-20.092"/><path d="M926.542 742.199l15.977-21.544 87.146 25.9 71.654-14.524"/><path d="M1034.022 714.602l-4.358 31.954-1.695 16.7 1.211 21.544 44.057 14.766 5.326 11.861-3.389 27.355-12.83 9.2-4.6 36.8s-1.211 8.231.726 10.167m39.701-147.667l3.389 18.64 13.8 4.6"/><path d="M1127.224 689.911s-7.747 34.375-10.652 41.878a64.053 64.053 0 00-4.6 19.124c-.485 6.052.726 8.231 2.662 14.767s4.842 10.409 3.632 16.461-1.211 10.651-2.663 16.7.242 7.5.485 14.525.726 8.957 3.147 15.734 5.567 9.925 6.535 15.493-.484 4.115 1.937 13.072a133.408 133.408 0 013.873 18.4c.969 6.294 1.695 8.231 1.452 11.135s-2.178 5.81-5.325 10.893-6.294 8.473-7.5 12.588a75.08 75.08 0 01-2.662 7.5m-38.981-106.749l37.037-12.588m-42.363.725l44.541-14.766M709.16 353.672l-7.02.242 61.971 313.968-178.407 8.957-14.282-90.536-1.695-.242c-1.695-.242-9.441 3.147-9.441 3.147l15.977 98.04 196.8-12.1zm-3.63-15.972l-17.671-89.809-154.2 172.356L558.35 569.6l8.957-2.421 2.179-.242-23-138.95L685.68 268.946l13.556 69.233zm-171.872 82.542l-10.167 4.841 20.576 134.35"/><path d="M560.287 589.209a15.642 15.642 0 00-5.81.726c-2.421.968-5.084 4.842-5.084 4.842l15.977 94.65 1.452 5.083 5.568-.242 199.952-14.525-1.452-4.358"/><path d="M681.327 671.756c0-1.21-21.786-117.89-21.786-117.89l2.662 3.389h4.358s3.389 3.147 3.873 5.325 19.603 108.692 19.603 108.692m-47.688-210.846l-21.787-116.921m30.017 111.111l-22.513-120.068m-81.578 93.44l-9.199 10.893m-13.798-13.798l154.928-171.629 9.441-5.568m354.151 463.085l-11.378-14.282 5.568-11.378 19.124-7.5s4.841-.726 6.051 2.905 1.695 4.841 0 6.052-15.492 8.472-15.492 8.472zm20.334 56.403l.726 7.988 16.219 5.809s6.536.726 10.409-.242 7.262-2.179 7.262-2.179 5.568-2.9-2.905-5.083-11.861-3.389-11.861-3.389l-.968-7.988s0-6.052-3.873-5.568a122.4 122.4 0 00-12.345 2.9s-3.633.005-2.664 7.752z"/><ellipse cx="3.833" cy="5.205" rx="3.833" ry="5.205" transform="rotate(-15.448 4021.478 -3293.754)"/><path d="M1151.912 956.433s8.23.968 9.682-.242 2.905-1.936 3.631-6.294.242-.484.484-9.441 2.663-11.135 3.147-16.7.484-6.294-.242-10.893-2.178-6.294-1.936-9.441-.484-7.989 1.21-12.588 7.262-9.2 8.715-13.8-.968-14.282-.726-21.545a107.054 107.054 0 00-2.421-23.239 35.957 35.957 0 01-.968-12.1c.242-3.873 1.694-21.3 3.147-28.08s1.695-14.524 5.325-22.271 1.937-9.683 4.842-17.188.969-8.956 5.568-14.04 5.325-8.472 7.746-11.861 6.778-3.632 8.472-9.925m16.703-15.013a48.3 48.3 0 01-6.535.968c-3.389.242-1.937-.242-5.568-1.21s-8.957-2.663-8.957-2.663l-1.211 11.378-33.406 3.631-15.976-10.651 1.21-10.408-3.873-.727-5.084 30.018a132.347 132.347 0 01-6.294-13.072c-3.873-8.957-2.178-6.051-3.147-14.04a25.053 25.053 0 012.421-14.041l26.144.242"/><path d="M1163.047 674.418s1.695 7.746 1.937 9.682 3.389.968 6.536 1.453a36.317 36.317 0 006.778.242s-1.452-7.988-1.695-10.651a42.655 42.655 0 00-.726-4.841zm-9.199 18.398l49.383 6.052m-25.66-17.916l34.374.242-2.9-9.925h10.651l1.694 2.663m-76.256 70.687l-.484 6.294 5.568.242s-.242.969 4.6 1.695 14.04 0 14.04 0 1.937-1.452 4.358-3.631 5.083-4.6 4.115-4.841-7.262.726-12.589 1.21-8.956 0-11.862 0a52.13 52.13 0 01-7.746-.969zm-28.081 78.432a21.387 21.387 0 0010.409 3.873c6.052.484 10.651.968 10.651.968l2.663-10.894s18.4 1.695 20.576.242 5.083-7.746 5.083-13.556a55.819 55.819 0 011.452-13.8c1.211-6.294-.968-10.651.242-15.735s1.211-8.472 1.695-9.925 2.421-3.873 2.421-5.084.242-1.695-10.652-.968-12.1.242-21.544-.968-16.461-2.663-18.639-3.148-1.937-3.388-2.9 3.389.242 16.461 0 18.882l2.178-3.631 24.692 7.02a57.624 57.624 0 01-.485 5.81c-.484 4.115-.484 8.472-2.178 15.734a92.629 92.629 0 00-1.936 15.735l-18.64-4.6-3.631-2.178 3.147-16.461-.485-2.905-1.936-1.695-1.937 12.346-1.937 4.357"/><path d="M1136.661 771.003l-.242 4.841 10.893 2.421.968-5.084zm32.196 152.75a56.143 56.143 0 01-5.5-2.015c-3.594-1.481-4.229-1.481-10.15-3.384s-3.6-1.057-5.287-4.229 0-1.692 1.269-5.709-1.48-4.441-3.172-8.248-1.269 0-2.115 2.115-.634 3.383-.634 5.921-2.537 1.692-8.247.846-8.67-3.384-10.785-4.018-.634 4.653-.634 4.653a69.883 69.883 0 019.939 9.093 57.972 57.972 0 007.19 7.19 45.311 45.311 0 008.67 5.5c5.5 2.749 17.129 1.692 17.129 1.692s5.774 2.047 9.875 1.565l4.1-.482 1.912-5.887s.26 13.607-2.636 15.295-2.654 2.171-7.237 2.171a12.9 12.9 0 01-7-1.689 42.28 42.28 0 01-6.754 2.171c-3.377.724-13.75-.965-13.75-.965m-40.686-32.275l17.975-9.728-6.556-2.749 3.6-25.8s4.863-8.459 5.5-12.054 1.269-9.727 1.269-9.727m-11.176 23.258c-2.33 11.325-7.883 19.752-12.4 18.822s-6.292-10.864-3.962-22.189 7.883-19.752 12.4-18.823a4.535 4.535 0 012.853 2.267c2.296 3.718 2.858 11.43 1.109 19.923z"/><path d="M1087.436 837.573a53.312 53.312 0 018.247 2.115c4.229 1.48 4.229 2.115 7.19 4.44a41.128 41.128 0 015.287 5.076s4.418 3.066 5.7 7.137m-11.294 38.744s-5.825 2.122-8.151 2.122-8.882 6.767-13.745 6.344"/><path d="M1086.803 901.33a52.11 52.11 0 01-4.985-22.984c0-18.293 8.2-33.4 18.822-35.688m-24.412-8.469l40.39-14.168m-69.779 14.591l-7.4-27.914 4.441 1.269 4.864 19.244zm-8.887 4.864l-3.807.212-8.67-37.641 4.441 1.48zm-1.273 9.516l3.6-.634 3.806 12.477-1.692 8.459zm-18.816-40.178l-1.48 9.516 5.71 23.261 3.806-.634zm6.344 41.659l4.018-.846 8.67 36.584-5.075-2.326zm-87.971-156.698l-1.9 13.534 23.05 6.555 2.115-13.745zm21.534-14.274l62 14.7 12.054-1.057"/><path d="M972.536 668.851l45.116 11.817 2.115 13.534m103.196-10.789c.635-2.538 6.344-4.229 6.344-4.229a5.351 5.351 0 011.9 4.229c-.211 2.538-2.538 5.709-2.538 5.709a37.286 37.286 0 01-6.747-.939q-.713-.149-1.5-.33c-5.5-1.269-2.749-.846-7.19-6.344s-4.018-10.785-4.018-17.34-2.96-18.821-2.749-23.685-.635-27.7-.846-29.394-3.383-2.749-3.383-2.749l-9.939-.635 3.806-4.018-12.688-8.036-13.327-7.413a26.206 26.206 0 00-8.877 6.567c-4.441 4.864-7.613 10.574-12.054 15.014s-6.979 10.362-9.727 16.283-5.921 15.437-8.036 18.4.423 3.6-3.172 5.5-4.441 1.48-5.921 2.749-.846.635-1.9 6.767a117.828 117.828 0 01-2.749 11.843l15.014-.846a18.437 18.437 0 001.692-5.287c.211-2.326-2.115-3.806.423-3.383s3.594 1.9 7.824 2.115 5.71-1.269 7.613 0 1.9 2.326 4.44 4.441 3.6 2.326 3.6 2.326a7.243 7.243 0 00.846-5.286c-.635-3.172-1.269-2.749-4.229-6.133a61.182 61.182 0 00-6.979-6.556m48.21-49.064l16.706-11.419 8.247 1.9 3.595 4.652"/><path d="M1043.873 655.922s10.151-11.631 15.015-15.86 10.784-10.785 14.8-15.014 7.824-8.882 11.631-11.42a45.714 45.714 0 006.979-5.921"/><path d="M1056.35 642.388s-2.537 5.922 1.481 6.345 26.856.634 26.856.634 10.151-3.806 13.534-6.767a100.635 100.635 0 008.036-8.458"/><path d="M1054.447 657.825l27.914-.423 2.326-8.036m23.261 9.094s-7.19 4.864-12.265 6.979-5.71.634-7.824 3.383-3.383 3.383-2.96 5.075 3.383 1.692 3.383 1.692-1.9 3.172 1.481 4.229 3.594 1.692 6.132.212.212-1.692 4.018-2.115 3.383.211 5.5-.635 4.229-1.481 4.229-1.481m-48.266 10.964l34.941-4.2s.846-1.269 4.652-1.9 4.018-1.48 5.076-.634.423 3.383.423 3.383 1.057 1.692.211 2.749-1.057 1.269-2.749.635-4.018.634-5.5 4.229-3.595 10.573-3.595 10.573l-11.42-11.631 2.749-4.652"/><path d="M1059.945 678.549l28.337-2.96a24.527 24.527 0 004.652-1.058c1.481-.634.846-2.115 1.269-3.595m10.505 32.53l-6.91-10.749m8.668-9.304s3.806.211 4.44-1.058 2.326-.846 2.326-.846m-183.34 29.184l-18.186-8.036 8.247-.634 10.785 2.961"/><path d="M919.953 702.024s14.8-52.021 17.341-74.225 5.286-43.351 5.286-43.351a50.876 50.876 0 01-1.48-8.036c-.635-5.287.211-5.287-1.692-9.3s-5.287-6.345-8.881-10.151-7.4-5.921-9.728-8.247-2.749-2.115-2.749-6.133v-7.824s14.591 16.495 17.975 20.3 3.806 4.44 8.458 7.824a56.563 56.563 0 0011 6.344c1.692.634 8.036 2.326 11 5.075s5.5 4.018 7.613 6.979 4.229.846 3.172 5.075-1.058 3.806-3.6 7.4-4.652 5.709-6.556 8.036-2.961 2.96-5.5 6.133-4.229 5.075-4.864 6.132-.423 3.6-1.692 6.979-1.692 8.247-4.229 12.265-2.538 15.438-2.961 20.09.846 11.631.212 15.86-.212 1.692-.846 6.344a41.14 41.14 0 01-1.058 5.921"/><path d="M960.132 677.492s-1.058-1.27-.423-11-1.269-16.706 0-24.53 2.115-11.842 2.326-16.706-1.48-5.286 3.6-9.727 5.5-8.036 9.093-12.477 5.286-8.247 7.19-12.265 4.229-4.23 1.692-10.151a51.624 51.624 0 00-10.15-14.591 61.267 61.267 0 00-6.556-5.921c-3.6-2.96-3.383-5.287-9.305-4.652s-6.555 1.48-9.938-3.172-11.42-16.494-14.168-19.032-13.745-19.455-19.244-25.588-5.075-9.516-10.15-13.534-6.767-8.036-9.939-11.843-3.594-5.5-5.921-5.5-11-16.283-11-16.283-5.5 4.018-4.652 8.67 2.115 8.67 7.19 10.362 5.5-1.481 9.727 5.286 3.383 8.67 5.71 13.323 6.767 8.459 9.3 12.477 3.6 9.728 7.613 15.226a100.069 100.069 0 015.922 8.881"/><path d="M942.58 584.446a8.857 8.857 0 007.4 3.172c4.652-.423 5.71-4.441 6.133-7.824s.846-5.5 1.9-6.767a8.15 8.15 0 012.327-1.9m-1.477 9.089l-20.724 108.695"/><path d="M956.748 578.313a6.308 6.308 0 004.653 2.115h6.555l-3.594 23.684m2.537-43.985s5.286-8.458 8.458-9.939 4.652-1.692 7.19-2.749 4.653-2.538 4.441 0 1.481 1.692-1.9 5.5-4.44 3.806-6.767 6.978-4.863 6.133-4.863 6.133M660.905 351.83l18.821.212 1.9 2.326 101.505-3.383 22.839 9.516 14.168 17.341a13.266 13.266 0 002.537 6.132c2.115 2.538 1.9 8.247 1.9 8.247l9.728-4.441 8.247-1.9s2.749-4.864 4.018-4.864h2.538l-5.921-7.4s-5.5-.211-8.036 2.327-1.481 4.229-5.5 4.441-6.133-1.481-4.864-3.806 1.9-2.115 3.172-5.922 2.326-8.67 2.326-8.67l-25.164-29.817-122.017 6.556-3.806 1.9-18.821 3.172s-2.115-1.9-3.807 1.269-2.96 4.018-.211 5.5a8.234 8.234 0 004.448 1.264zm216.332 108.695s-50.752-63.229-51.178-64.921a13.8 13.8 0 00-1.481-3.383m17.978-6.344l109.752 138.089m-40.603 178.69l.846 7.824a9.4 9.4 0 00-2.114 2.749c-.846 1.692-1.692 3.806-2.326 5.5s-.846 1.269-1.481 4.23-.211 9.3-1.269 15.014.212 9.727-1.269 14.8a76.837 76.837 0 00-2.961 12.477c-.846 5.5-.846 9.3.212 13.745s.846 5.71 5.286 7.824 2.75 2.749 7.19 2.115a11.932 11.932 0 006.767-3.172l2.115-11s-1.269 0-4.018 2.538-2.96 3.6-5.921 4.018-4.864 4.229-4.864-2.749a87.666 87.666 0 011.269-16.283 93.327 93.327 0 001.692-13.957c.212-5.5-2.749-3.6-.846-10.574a58.244 58.244 0 002.115-10.785s2.537 2.115 1.057 7.4a63.358 63.358 0 00-1.9 9.093"/><path d="M905.362 737.972s-6.767 4.652-7.19 7.4.634 4.23.423 10.151 0 9.516-.212 13.745 0 8.67-.211 10.785a25.951 25.951 0 01-.846 4.229h-2.749a9.789 9.789 0 00.212 5.075 30.427 30.427 0 002.749 6.133l.423 3.594s-5.709 2.115-6.767 3.806a3.846 3.846 0 01-2.326 1.9s-1.269-1.9-2.115.423-.424 2.96-.424 6.344-2.96 21.358-2.96 21.358l-5.5 1.27-.634-2.749s-3.6-2.115-5.71-.635a5.015 5.015 0 00-2.327 2.961s-2.326 1.692-1.9 3.6 4.863 6.344 10.573 8.247 33.412 13.323 33.412 13.323"/><path d="M886.329 811.562s10.574 8.036 17.764 9.093a66.676 66.676 0 0011.631.846m-26.856-16.705s3.1 5.327 12.053 7.825c9.093 2.538 3.384 1.48 15.649 1.269m211.89-281.043s-4.229-6.132-5.5-11-2.749-6.767-3.383-11.631a22 22 0 010-7.4l1.9-1.692s-.846 0-1.692-2.961 0-5.709 1.692-9.939 4.229-6.132 4.229-6.978-2.749-3.383-1.9-5.922 1.481-3.383 4.652-4.229 6.556 3.172 11 .212 9.516-7.4 13.111-6.979 4.864-.846 11.42 3.383 6.555 3.806 9.727 10.362 6.979 14.591 6.133 21.358-2.96 9.305-3.806 12.054-1.481 3.172-.635 5.287l.846 2.115"/><path d="M1174.772 514.027s4.018-.634-5.287-2.326-8.881 0-14.591-3.172-5.075-2.749-7.4-4.229a29.794 29.794 0 00-3.806-2.115s-.423-6.979-2.327-7.824-1.692-2.961-4.229-.211-1.269 5.075-3.806 5.075-6.133-1.058-6.556-5.5.635-4.018-1.057-6.768l-1.692-2.749m-.845 39.758s-1.692.635-1.9 4.652.635 5.287 1.481 5.922"/><path d="M1133.324 508.95s-2.115 2.96.212 3.806 4.44 1.058 5.921-1.057a19.934 19.934 0 002.537-4.652 32.616 32.616 0 001.692-4.864m-4.652-7.188s-1.692-1.269-1.481 2.326 2.326 2.538.846 5.287-1.269 2.749-2.538 3.172-2.537-.212-1.9-1.9m-564.476 63.061s3.651.363 3.516 1.58-.406 1.893-2.7 2.163a25.161 25.161 0 00-4.868 1.217 25.733 25.733 0 015.274-.271c1.487.271 2.028.676 2.164 2.028s.811 2.029-1.082 2.164-4.327.406-4.327.406 4.463-.135 5.274.812.676 1.352.271 2.3 0 1.217-1.893 1.352-3.922.271-3.922.271 3.516.947 5 1.487 1.353 1.082.812 1.758-.59 2.034-1.579 2.1m-22.033 8.468s-3.168 2.546-5.872 4.709-2.164 2.3-7.167 4.463-5.409 3.922-10.142 5.544-4.328 2.84-9.6 2.028-7.032-1.758-11.224-4.327-7.573-4.733-7.573-4.733a34.822 34.822 0 00.541 10.683 45.228 45.228 0 011.623 11.5c.135 4.733 2.975 4.868.541 7.978s-2.3 5.545-4.463 7.708-2.3.947-2.705 4.057-.27 1.217 0 6.221-.676 5.679.812 11.089 1.082 7.708 1.217 11.089a39.582 39.582 0 001.487 9.872c1.217 5 2.029 15.958 2.435 20.015s2.3 19.2 2.7 25.423.947 19.473.271 24.748-1.758 16.768-4.192 21.637-4.868 12.847-6.762 18.121-3.246 12.847-5.544 17.851-5.139 8.926-5.139 14.065.406 11.629 1.758 13.523.947 2.569 4.462 3.652 3.246.27 6.356 2.163 3.246-.271 6.086 2.3 4.057 3.245 2.3 7.032 3.246 5.68-5 5.815-2.975-.406-13.928-.406a171.053 171.053 0 01-17.175-.676c-7.032-.406-3.787-1.623-10.954-.676s-10.548 1.217-11.089 1.217-1.758 1.623-1.488-2.3 2.7-8.519 3.246-12.171.676-7.438 1.488-11.224a39.539 39.539 0 013.786-10.278 37.621 37.621 0 003.652-11.089c.27-2.7.27-15.146.811-17.039s1.352-15.011 2.84-20.015 3.11-4.868 3.246-11.359 1.352-6.762 1.893-10.413.811-6.086-.812-10.142-1.487-2.976-3.38-7.574-2.975-4.462-4.733-9.061-.541-5.544-2.569-9.872a29.292 29.292 0 00-8.519-11.359c-4.327-3.516-4.057-3.245-7.167-7.032s-6.221-7.3-7.573-11.63a42.782 42.782 0 01-2.029-11.359c-.271-4.192 0-3.11-.947-5.95s-.27-3.651-.27-5.41 1.623-8.79 1.758-11.63 2.164-2.3 1.082-7.708-2.028-5.275-2.839-8.79-2.029-7.844-1.893-13.118 2.434-16.633 2.569-20.555 1.217-10.683 1.217-13.388-2.028-13.659-.811-19.473a113.576 113.576 0 014.327-14.065c1.082-3.246 2.84-2.84 4.463-6.491s1.217-4.327 4.192-7.032 1.487-3.651 5.139-4.733 4.462 1.623 4.327-1.352 0-8.385-1.893-12.306-1.082-2.57-2.569-6.491-3.246-3.922-2.434-9.061.271-5 2.7-8.52a22.029 22.029 0 016.086-5.68s-3.111.406 2.3-1.893 6.356-3.922 10.413-3.651 4.057.271 8.249 1.758 9.6 3.381 12.847 5.544 3.246 1.624 5.815 5.815 6.221 6.356 5.139 8.52a5.919 5.919 0 01-2.975 2.839s2.434 1.758 1.893 4.192-1.623 5.815-2.029 6.086.947 1.623 1.082 3.516a2.8 2.8 0 01-1.758 2.975c-.676.271.136 1.893-1.082 2.569s-2.7.271-2.3 1.352 1.758 2.3 1.082 2.975-1.623-1.082-1.623.947 2.3 3.516-.135 4.868-3.381 1.082-5.815 2.435-5 1.082-5.68 2.975a4.384 4.384 0 000 3.246 22.557 22.557 0 017.979 2.84c3.246 2.163 6.9 6.355 8.114 9.2s5.41 8.114 8.79 11.224 4.327 4.192 6.9 6.221 4.192 3.246 4.192 3.246a68.758 68.758 0 009.061-3.381c3.922-1.893 5.95-1.893 8.926-4.192a48.612 48.612 0 006.491-6.356c2.028-2.164 3.38-2.84 5.138-4.6s3.516-5.951 4.6-7.438 2.569-1.623 2.569.541a11.408 11.408 0 01-.812 5.274c-.811 1.893-1.623 3.516-1.623 3.516a3.2 3.2 0 012.84 2.028c.811 2.028 0 3.246 1.623 4.057s2.434-.135 4.463-1.082a29.3 29.3 0 013.334-1.351"/><path d="M448.719 531.735s.135-.947 3.787-2.84 5.814-2.3 8.519-3.786 3.786-.676 5.139-3.787 1.217-6.086 2.434-7.979 2.7-3.246 4.868-3.246a24.7 24.7 0 014.733.406c1.758.271.271 2.163 3.381 0s.676-3.381 4.463-3.111 3.651-1.893 4.6.541 1.488 3.786 1.488 3.786-5 .541-7.843.541-11.09-.406-11.09-.406"/><path d="M475.498 514.425s-1.082-2.569-2.3-2.569-2.975.406-3.246 2.028-.676 2.164.271 4.327 0 2.569 1.893 3.922a13.607 13.607 0 002.84 1.893 4.934 4.934 0 001.758.406m15.282-2.434s-.811 2.3-2.3-.135-.811-3.516-2.84-4.733-.54-1.623-4.327-2.028a30.574 30.574 0 01-7.167-1.758m-26.91 22.718s0 .136 5.274.947 3.381-1.352 8.114 1.623 4.463 3.246 7.3 5.68 3.786 2.975 4.6 4.057a4.666 4.666 0 002.028 1.488m-6.22 35.7c4.192 3.922 2.435 2.164 7.979 6.762s10.007 8.655 10.007 8.655 1.251-1.454 2.806-3.127a40.261 40.261 0 014.631-4.446c2.435-1.758 2.029-1.082 6.627-3.786s5.274-3.111 7.573-4.6 2.569-2.434 2.569-2.434"/><path d="M490.509 598.134c1.623 1.217 7.3 4.327 7.3 4.327a35.145 35.145 0 01-5-.135 37.742 37.742 0 01-5.274-1.352m24.611-17.174a17.472 17.472 0 005.139 3.515 9.435 9.435 0 006.356.406c2.434-.541 8.79-1.759 11.224-2.975a64.184 64.184 0 007.3-3.922c2.434-1.623 3.246-1.217 3.516-3.11s-.406-2.7-.271-5.41-.541-5.139-.406-5.544 1.082-.811 1.082-.811M426.811 637.08c1.353-1.893 1.488-2.435 3.381-3.651s1.487-4.328 4.6 0-1.352 2.975 5.544 6.221 9.466 4.463 15.957 5.139 5.139.947 12.036.54 8.52.541 14.065-1.082 5.679-2.028 8.384-2.84a8.346 8.346 0 014.192-.405m-7.3 163.631s-.406-1.216-4.6-1.487a37.763 37.763 0 01-8.52-1.758c-.54-.135-4.733-1.623-4.733-1.623a135.242 135.242 0 004.868-14.74c1.487-6.221 1.487-10.142 2.7-13.388s2.435-5.41 2.975-9.467.947-8.114.947-8.114l-.135-1.623a15.073 15.073 0 005.95-.27c3.111-.812 3.922-1.623 6.086-2.569a13.332 13.332 0 014.463-1.352 42.617 42.617 0 014.327-.677"/><path d="M458.189 737.152c-1.082.406-3.651.271-6.086 4.463s-8.654 11.5-11.63 16.9-5.138 14.605-7.978 19.068-4.463 10.818-7.708 15.011-5.41 12.712-8.384 16.363-5.274 5.545-6.355 8.385.406 2.434-2.029 5.95-4.057 4.733-5 7.978-2.7 5.275 3.111 6.762 7.708 2.164 12.441 3.111-1.217-1.217 9.6 2.028 12.712 4.057 13.658 4.057a8.017 8.017 0 012.569.811 66.538 66.538 0 009.466 2.569c4.6.812 3.651.136 12.036-2.164s5.544-2.569 11.224-5.274 6.356-2.57 6.356-2.57"/><path d="M446.694 829.787s.135.947-2.164-4.192-5.41-5.68-2.3-7.573 4.327-1.893 5.95-3.246 1.623-2.705 3.381-4.733 2.569-2.975 2.569-2.975m-10.273 19.473c-6.356.541-5 2.975-9.737.811s-2.7-1.623-7.843-3.786-3.516-1.217-8.79-3.245-7.438-2.975-7.438-2.975m58.418-71.538s5.544.271 8.654-1.082 2.029-.541 7.032-2.435 5.41-1.758 8.519-3.651a33.045 33.045 0 004.733-3.38s-3.651-5.815-4.057-10.143a99.9 99.9 0 00-1.352-10.413c-.811-4.6-1.487-5.815-1.487-5.815a48.286 48.286 0 01-12.036 0 98.417 98.417 0 01-10.954-1.758c-.676-.136-3.922-4.6-4.192-5.815s-.406-1.893-.406-1.893l-10.547 2.574s1.758 6.762 3.516 12.306 4.327 9.872 5.679 14.605 1.353 4.327 3.787 9.2a40.318 40.318 0 013.111 7.7z"/><path d="M464.679 653.579s.131 1.527.467 3.913c.255 1.814.63 4.123 1.156 6.635 1.217 5.815 3.111 8.114 4.6 15.011s2.705 5.679 3.787 12.982 2.028 12.305 2.028 12.305l.676 3.922m-49.226-60.312l4.733 1.487s4.463 1.623 5 1.758 3.38.676 9.2 2.028 5.544 1.352 10.954 2.84c0 0 3.651-.136 5.138 0l1.488.135m1.623 9.196a25.771 25.771 0 01-5.679.271c-3.787-.135-2.435-.676-9.872-.406s-11.089.676-15.011.406-5.68-.947-7.167-.947a26.393 26.393 0 01-4.057-.54"/><path d="M432.089 665.615s-.812 2.3 2.434 4.192 2.975 1.487 5.815 1.623 4.868.135 8.114.271 4.057.135 5.68-.271 2.7-.676 2.975-1.217 1.487-4.327 1.487-4.327"/><path d="M460.624 665.75s1.082 6.491 1.352 10.278 2.975 10.954 2.7 13.523 0 4.057-2.028 5.274-3.381 1.623-7.843 2.028a77.225 77.225 0 01-12.306.271c-3.381-.271-6.086-1.758-7.167-4.733s-2.3-3.381-4.6-7.438-1.758-4.327-2.975-6.085l-1.217-1.758m44.36 2.027s8.655-4.733 11.63-7.438 5.68-5 6.762-8.791 1.623-4.733 1.488-7.708a42.226 42.226 0 00-.812-6.086m156.055-192.298s-2.569.136-2.975 1.623-8.519 31.1-8.519 31.1l-2.435 4.463h-4.192a59.057 59.057 0 00-7.573.271c-1.488.27-2.164.27-2.7 1.217s-1.082.947-.677 3.381-1.487 3.651 1.623 4.6 3.922.676 6.9 1.217 7.167 1.217 7.167 1.217l10.815 20.417 1.488 2.3s-2.029 2.3-3.787 2.839-5.815 2.435-5.815 2.435 1.217 3.922 2.3 5.139.271 2.7 2.705 2.839 3.786-.406 6.085-1.623 3.922-1.623 3.516-1.758 2.569 5.139 3.111 5.679 1.623.271 2.163 1.623 3.111 5.815 3.111 5.815l1.2 2.252 2.662 3.389h4.358l3.407 4.231s2.84 5.544 7.167 6.355 19.744 3.381 19.744 3.381 5.544.271 6.626-1.352 4.734-8.926 6.627-19.609 7.708-34.079 7.708-34.079 1.623-4.463-1.893-11.089-18.662-36.377-18.662-36.377l-4.057 2.028 11.494 22.584 5.815 11.224s2.975 5 2.975 7.3-2.028 14.469-2.028 14.469l-5.274 19.2s-2.164 13.253-2.705 14.605-1.217 5-2.434 5.274-14.334-1.082-14.334-1.082l-6.9-.947s-2.434 1.758-7.032-6.762-32.186-58.42-32.186-58.42-1.893-5.139-.406-9.466 7.708-27.452 7.708-27.452 2.034-3.639-1.891-4.451zm11.768-101.155s-.676.812-1.352-1.487-.135-2.705-2.434-2.705-5.409-2.7-4.463.541.406 3.922.811 6.627 2.435 7.3 2.976 10.007 1.487 5.275.947 8.926a21.2 21.2 0 00-.136 7.708c.406 3.381 1.352 4.6 1.352 4.6a5.355 5.355 0 00-.406 4.057c.676 2.3 3.787 12.306 3.787 12.306l4.462-2.028.947-1.893 2.976-.811s-1.623-5.275-1.623-7.573a27.442 27.442 0 00-.406-4.462s.271-3.652.541-5-1.082-2.028.271-3.246 2.163-.811 2.163-1.623a4.3 4.3 0 00-1.487-2.434c-.676-.676 1.352-2.029 1.623-5.68s1.352-5 1.487-6.626a34.753 34.753 0 012.029-6.762 28.087 28.087 0 001.082-3.651l.405-2.164-12.438-.451s.944 2.479-.544 3.291a3.842 3.842 0 01-2.57.533z"/><path d="M660.225 398.94s-1.217.271-1.623-.676-1.352-4.733-1.352-4.733-.136-1.352.811-1.217 1.893.676 2.975.541 1.217-.676 1.623.541a6.4 6.4 0 01.406 3.11c-.135 1.078.947 1.889-2.84 2.434zm-1.217-16.636s-.676 2.163.271 2.839.676.136 1.758.541 1.758-1.217 1.758-1.217-.406.271-.676-1.352.135-2.975-.947-2.84-2.164 2.029-2.164 2.029zm-3.516 7.572s1.352 2.028 2.569 2.434"/><path d="M662.66 393.392s-.135-2.435-.135-4.328-2.435-2.3-2.435-2.3l-.811-1.623m3.246.408s2.3 2.028 2.7 3.922m-21.903 137.666l-6.9 3.246c-2.3 1.082-4.868 4.057-7.573 7.708a13.685 13.685 0 00-2.84 9.466c.271 2.028 1.217 7.032 2.84 7.167a20.59 20.59 0 005.544-.406 21.71 21.71 0 004.463-1.488 5.542 5.542 0 012.3.676c.676.541 1.893 0 1.893 0s1.217-1.623.271-2.163a17.118 17.118 0 01-2.705-2.57s-.135-.541-1.487.54-.812 1.352-3.111 2.029-4.868 2.3-6.086.54a10.638 10.638 0 01-.406-9.737c1.758-4.057 3.246-5.95 4.057-6.762a15.99 15.99 0 011.758-1.487m35.569 136.452l-12.712-77.894-5.68-34.755"/><path d="M641.699 539.443l4.733-1.893-2.569-5.68-6.491 2.434 2.3 3.786zm6.626-2.976l-2.975-5.95 3.786-2.434 3.246 6.356zm18.933-134.961s.946-.947 2.7.271a6.4 6.4 0 003.651 1.352c1.082.135 2.028-.406 2.3.811s11.089 66.8 11.089 66.8l2.435.947.947 4.463s2.3.676 3.246.947 1.623.54 1.487 1.487-.676 3.246-.676 3.246.406-.135.136 2.029a45.874 45.874 0 00.135 6.761l1.357 4.869s1.082.271.676 1.758-1.217 2.164-1.893 2.028l-1.353-.271-3.922 13.658a6.5 6.5 0 01-1.217 3.652 26.474 26.474 0 01-3.922 3.38 39.807 39.807 0 00-3.381 4.327s-2.028-.27-1.758-.676a9.172 9.172 0 00.54-2.028s-6.491-1.352-9.2-4.734-5.68-7.437-6.086-11.224-2.975-6.491-3.786-9.061-.406-3.651-1.623-4.192-4.192-.406-4.733-2.028-.541-4.463-1.217-7.438.541-4.057-1.217-5.815-3.11-1.758-3.11-1.758l2.028-11.494 3.381-10.142 2.7.54s-2.435-7.3.135-8.925 4.328-3.111 6.086-2.435l1.758.677-3.11-22.855s-.812-1.623-2.3-4.868-2.435-2.569-2.3-5.544 1.623-3.787 1.623-3.787m328.168 139.379l1.93-4.342s2.413-3.136 2.292-4.342a14.735 14.735 0 00-.6-2.654l-3.377-5.669-2.654-3.256-1.086-1.447s.724-2.774.241-3.739-3.377-4.7-3.377-4.7l-2.171-2.774s1.689-1.327 1.93-2.292.6-1.568.241-2.171l-1.085-1.809s1.206-.844 1.085-1.689a12.708 12.708 0 00-2.412-4.1c-1.086-1.327-2.051-2.051-2.292-2.533a17.228 17.228 0 00-1.568-1.93l-3.859.362a16.174 16.174 0 00-2.533-3.136 12.8 12.8 0 01-2.171-2.533l.482-1.93-1.93-3.618-1.809-2.654-1.448-.241-3.739-3.739s-5.066-4.584-6.875-5.549a32.819 32.819 0 01-4.463-3.256l-29.431-36.427s-10.132-12.786-11.339-13.63a42.628 42.628 0 01-3.859-3.618s-10.736-15.56-12.786-17.851-13.871-17.73-13.871-17.73l-1.448-2.051-.723-2.171-1.447-1.206-2.051-1.809-.724-1.568-1.568-1.93-2.292-1.326-2.654.241-2.654-2.894-1.086.12-1.206-1.327-1.809.965-.362 2.533-1.206.362-2.533-2.413-2.654-2.774h-2.05c-1.086 0-.724-1.568-.965-2.654s.6-1.689-1.448-2.412-2.171-1.206-3.859-1.568-1.327-1.809-3.5-.6-2.9 2.171-4.221 2.533-2.9.966-2.9.966"/><path d="M849.111 381.012l112.268 137.176-.643 2.252-2.734.482-4.181 1.769-4.5 5.468 7.237 9.006 4.986-3.7v-2.573l3.056-2.734 3.859.321 2.413-2.412a5.822 5.822 0 002.734 2.252c1.93.8 2.894 1.769 4.5 1.608l1.608-.16"/><path d="M960.736 517.063l4.342-4.5 2.412-.482 2.573-.322 6.594 7.4-5.79 6.915"/><ellipse cx="4.101" cy="5.227" rx="4.101" ry="5.227" transform="translate(941.92 573.512)"/><ellipse cx="2.332" cy="2.654" rx="2.332" ry="2.654" transform="translate(964.596 516.259)"/><circle cx="2.975" cy="2.975" r="2.975" transform="translate(980.678 528.16)"/><ellipse cx="4.986" cy="8.363" rx="4.986" ry="8.363" transform="rotate(-20.2 2108.217 -2574.794)"/><path d="M964.435 715.681l2.734.8-3.056-18.816zm4.503-16.726l1.126 18.173 3.056.965zm5.629 2.09l.8 17.691 2.895.8zm5.307 1.447l.643 17.691 3.056.8zm5.146 1.773l1.126 17.369 2.895.8zm5.629 1.283l.643 17.369 3.056 1.126zm5.307 1.126l.8 18.012 3.056.8zm5.629 1.608l.965 17.851 2.895 1.126zm23.68-45.382l-2.924 7.657m5.698-7.264l-1.994 6.268-.427 1.282m6.271-8.12a33.874 33.874 0 01-1.852 3.988 20.525 20.525 0 00-1.567 4.131m-41.167-3.685s4.7-1.441 8.258-1.014 6.7.569 8.832 0a13.686 13.686 0 005.412-2.564 20.909 20.909 0 002.707-3.276l2.992-.142 4.9-.643a5.755 5.755 0 004.864 3.384c3.594.211 7.824-.846 9.516-1.058"/><path d="M1025.332 650.9l-7.55-1.282a12.772 12.772 0 01-1.425 4.558c-1.14 1.852-.854 5.983-.854 5.983M853.266 368.543l116.798 143.213M861.589 368.784l97.647 121.434 6.838 6.98 3.276 3.419 3.561 4.558 3.561 4.416m-75.783 230.293l-1.866-1.658-2.7-.207s.622-2.9.829-4.561 1.036-2.488 0-4.354-1.866-1.244-1.658-4.976l.208-3.732.207-1.244s.622-1.866 1.451-5.6.622-4.976 1.037-8.086a40.263 40.263 0 00.207-6.634 17 17 0 01.829-4.146 94.081 94.081 0 011.451-4.354l-5.39-1.658.622-5.6.415-3.11-.622-2.9 1.451-8.292.829-3.11-2.281-2.7 2.488-10.781 1.244-6.427 4.353-.622 1.244-3.939a21.943 21.943 0 011.452-4.562c1.037-2.281.829-3.524 2.488-4.561a19.14 19.14 0 012.7-1.452l1.451-1.658 1.036-1.659 2.488-.622 8.086-74.844m10.784 11.202l-6.841 65.307 2.695 1.452s.829 1.866 0 2.695-4.976 44.782-4.976 44.782m-12.235-49.966s2.7 4.146 17.208 2.488"/><path d="M899.445 645.759l5.805 3.11 6.012.207 1.659-8.086.622-7.464m-18.966 150.757l-3.632.8-2.073 4.354s-1.037 2.487-2.487 3.317a24.933 24.933 0 00-4.354 2.9c-2.7 2.073-2.9 3.109-3.732 5.6s-1.659 6.427-1.659 6.427-2.073 1.243-3.11.829-2.073-2.281-3.524-2.9-5.183-1.659-5.183-1.659l-3.11.83-2.073-2.7-5.183-2.073-1.658.415-3.11-2.073-5.391-2.073-2.281.415-2.487-2.488-4.562-1.866-3.524.829-1.866-3.11-4.769-1.452-2.281.622-3.317-2.488-4.562-1.037-2.281.208-2.488-2.7-6.635-1.244-3.109-1.658s-1.037-.415-4.976.207-9.952 1.452-9.952 1.452-6.22 1.658-8.5 2.281-6.842 1.658-6.842 1.658l-3.11 2.073-3.317 1.866s-2.073 3.525-3.525 6.012-3.11 8.916-3.11 12.44 1.244 7.878 2.073 10.988 1.659 6.427 1.659 6.427l-4.769-.622-4.768.207-2.9-3.939-6.22-1.451-4.768-3.11-4.769-1.659-4.353-2.695-6.427-1.866-3.732-1.244-5.6-2.9-3.731-1.866-3.11-2.281-5.8-1.037-2.488-1.037-11.2 1.658-9.537.622-12.232 2.073a22.493 22.493 0 01-4.976 3.317c-2.7 1.244-2.9.415-5.8 3.525s-2.695 5.183-3.317 12.232l2.4 17.478 2.171-13.026 1.93 6.514 2.895-13.509 2.171 16.645 5.549-16.4-.482 20.5 7.719-10.855 1.447 21.47 5.79-10.856 7.961 7.479 11.821-1.689 1.93 11.821 10.855-2.412-8.684 13.026 33.532 15.2-7.479-11.1s8.2 5.307 7.961 4.583-3.619-8.684-3.619-8.684l-3.618-14.957 9.408 15.922-1.206-12.062 8.926 12.062.965-9.891 9.891 11.579-1.206-7 10.855 13.991s2.413 18.817 2.654 16.886 2.413-11.1 2.654-9.891 4.583 11.579 4.583 11.579 5.307 11.1 5.79 8.926 1.689-21.47 1.689-21.47 5.549 25.571 5.549 24.847 5.307-13.268 5.307-13.268l4.1 20.263 2.171-5.548.965 7.237 15.422 7.502 18.736 9.1 25.423 12.351v-9.167l4.584 5.307 2.654-4.342 3.618 8.926 5.548-6.272 5.79 10.373 5.066-5.307 7.238 12.062 4.342-3.86 6.273 5.79 2.653 6.514 3.86-9.408s7.237 14.715 7.719 13.268.966-9.891.966-9.891l9.891 8.2s7.719 1.447 8.443-.241 10.855 3.86 11.1 2.9.965-8.685.965-8.685l4.1 5.307.005-3.591c-.622-7.049-2.9-10.988-6.012-15.549s-8.086-5.6-12.232-8.086-12.854-5.6-12.854-5.6l-36.075-17.623-50.587-24.257-53.9-24.049-69.039-34.831-33.172-17.208s-13.89-7.049-17-8.293-6.22-1.244-10.159-.207-3.11 2.9-4.976 4.354"/><path d="M786.66 839.815a13.924 13.924 0 011.451-4.354c1.037-1.658 2.488-2.695 3.525-3.939a2 2 0 00.414-2.281s-.207-4.561.415-6.634 2.9-3.11 5.6-3.11 2.073 1.866 2.073 1.866l2.7.829 3.11 4.147 4.976 5.6 42.294-10.781-25.915-9.951s-44.368-17.83-47.271-18.866-9.744-1.452-12.025-.622-4.561 1.659-6.22 5.391-2.488 4.976-2.7 10.366 3.939 14.513 3.939 14.513l4.24-3.3 1.206 5.549s1.206-4.1 2.412-7.478a28.82 28.82 0 001.448-6.755l.482 6.513 3.618-8.926-5.79 22.194 5.307-.724.482 4.342 3.618-8.443.241 9.65 3.619-9.408-.483 11.82 2.171-2.171zm191.568 87.906c-.622-.622-9.744-4.768-9.744-4.768l-8.086-4.768-7.671-1.659-6.427-4.353-7.464-3.939-7.049-1.452-5.183-3.732-6.22-1.244-6.22-4.768-8.915-4.769-5.6-4.353-48.721-21.148-21.769-10.366-6.841-3.317-6.22-2.488 27.989-7.463 23.209-5.771m-62.599 7.428l40.428-10.366-1.037 8.708"/><path d="M823.357 828.62l21.769 5.805 39.806-11.2m-31.721-2.07l29.025-7.049 3.525.829M655.679 546.589c-1.27 9.692-6.885 17.5-15.076 19.476-11.517 2.781-23.763-7.016-27.353-21.881s2.836-29.171 14.353-31.952a17.328 17.328 0 018.628.155m-19.365-12.519c-6.467-3.267-11.795-9.965-13.856-18.5-3.364-13.927 3.246-27.472 14.763-30.253 9.214-2.225 18.777 3.113 23.956 12.47m3.215 8.732c1.827 8.82-.308 17.383-5.116 23.042"/><circle cx="4.583" cy="4.583" r="4.583" transform="translate(1004.882 750.659)"/><path d="M1009.707 842.811l-2.9-11.1s-6.754-5.066-6.513-8.443 1.206-14.715 1.206-14.715l-3.136-15.2 4.1.965 1.447 4.584s5.307-2.171 8.2.241 3.86 5.549 3.619 6.754-2.413 21.953-2.413 21.953-.965 2.412-1.93 2.654a105.706 105.706 0 002.412 12.3zm-25.088-53.795l13.267 55.97 4.583-.241-13.268-54.76zm-4.825 17.851l-1.689 8.443 8.443 31.361 3.377-.483zm32.325 44.87l4.1-.482 6.755 29.189-5.413-1.958z"/><path d="M1143.682 986.208l9.441-5.326 2.663-17.187s-17.914-31.228-20.334-35.584-7.5-5.084-7.5-5.084l-110.391-44.537-11.135 4.358-6.851-29.417 4.584-.483 6.03 25.812m-17.61-24.37l-4.583.724 7.053 33.3 4.767-1.936zm-16.646 1.93l8.443 37.633 4.1-.482-8.2-37.391zm-1.205-15.921l-.724 7.72 4.1-.965-1.206-6.272zm-28.707-47.765l12.3 56.208 4.342-.241-12.3-54.278zm-11.821-4.101l13.75 62 3.619-.241-13.027-60.791zm-7.961 3.86l-.483 9.891 10.856 49.695 3.619-.483-12.3-59.826zm12.303 67.787l3.86 18.575 4.1.483-4.1-19.781zm-10.855 1.447l2.654 11.821 3.86 1.447-2.654-13.509zm-5.066-37.15l-1.206 7.961 4.583 20.987 3.86-.724zm26.535 34.013l1.206 6.513 4.1.724-1.206-7zm-32.324 4.343l1.448 5.79 3.618.724-1.206-6.513zm94.804-302.267l11.1 29.672 4.583.965 3.136-3.136 5.066-.241 8.428-4.427m-26.167 66.219c-1.08-.036-9.523-1.725-9.523-1.725l-7.479-18.575-10.132-1.447m6.756.965v36.668M674.39 558.636h5.79l2.654 5.066m3.897.623l-1.245-8.584 11.338 1.206 11.821-44.87-13.992-26.053m-9.166 69.718l-13.509-1.689m-34.014-78.161l-11.58-5.543.965-3.619 4.342-3.377 8.2 4.825m-19.559 26.097s-.7-6.08.5-7.769 2.894-4.1 5.548-2.894a10.967 10.967 0 015.066 4.824 10.348 10.348 0 011.447 3.619"/><ellipse cx="3.136" cy="3.86" rx="3.136" ry="3.86" transform="rotate(-30 1270.565 -965.27)"/><ellipse cx="3.136" cy="3.86" rx="3.136" ry="3.86" transform="rotate(-30 1303.335 -1035.612)"/><path d="M684.973 458.971c8.895-1.069 18.16 6.472 21.4 17.883a28.726 28.726 0 01.942 11.259m4.535 52.495c2.868 10.1.211 19.294-6.1 24.065"/></g></g></svg>