<svg xmlns="http://www.w3.org/2000/svg" width="176.377" height="24.216"><path d="M71.625 0H58.146L48.127 8.094V0h-10.7v23.3h10.7v-5.418l4.112-3.2 7.082 8.616H72.93L60.33 8.579z" fill="#2e2e2d"/><path d="M94.663 12.141c0 2.9-2.186 4.308-6 4.308-3.884 0-6-1.4-6-4.308V0H71.945v12.631c0 8.648 5.482 11.585 16.709 11.585 11.161 0 16.709-2.937 16.709-11.585V0h-10.7z" fill="#2e2e2d"/><path d="M94.663 12.141c0 2.9-2.186 4.308-6 4.308-3.884 0-6-1.4-6-4.308V0H71.945v12.631c0 8.648 5.482 11.585 16.709 11.585 11.161 0 16.709-2.937 16.709-11.585V0h-10.7z" fill="#2e2e2d"/><path d="M71.625 0H58.146L48.127 8.094V0h-10.7v23.3h10.7v-5.418l4.112-3.2 7.082 8.616H72.93L60.33 8.579zm58.542 0h-22.714v23.3h10.7v-6.07h12.011c7.636 0 10.377-2.709 10.377-8.551C140.545 2.741 137.808 0 130.167 0zm-3.917 10.965h-8.093V6.657h8.093c1.731 0 2.579.718 2.579 2.154s-.881 2.154-2.579 2.154zm44.545 4.211v-.326c3.166-.784 4.993-2.709 4.993-6.723 0-5.483-2.805-8.127-9.985-8.127h-23.824v23.3h10.7v-5.939h7.539l3.785 5.939h12.376zm-9.236-3.981h-8.88V7.344h8.877c1.534 0 2.285.652 2.285 1.925s-.747 1.926-2.282 1.926z" fill="#2e2e2d"/><g fill="#ffde1a"><path d="M21.152 5.222A5.223 5.223 0 1026.384 0h-.016a5.223 5.223 0 00-5.216 5.222zm5.223 7.634a5.223 5.223 0 105.223 5.225 5.223 5.223 0 00-5.223-5.225z"/><path d="M26.375 12.856a5.223 5.223 0 105.223 5.225 5.223 5.223 0 00-5.223-5.225zM0 5.222A5.223 5.223 0 105.231 0h-.014A5.222 5.222 0 000 5.222zm5.222 7.634a5.223 5.223 0 105.224 5.225 5.223 5.223 0 00-5.224-5.225z"/><path d="M5.222 12.856a5.223 5.223 0 105.224 5.225 5.223 5.223 0 00-5.224-5.225z"/></g></svg>