<svg xmlns="http://www.w3.org/2000/svg" width="122" height="122"><defs><clipPath id="a"><circle cx="61" cy="61" r="61" transform="translate(65 333.244)" fill="#888"/></clipPath></defs><g transform="translate(-278 -333.244)"><circle cx="61" cy="61" r="61" transform="translate(278 333.244)" fill="#ffe202" opacity=".302"/><g transform="translate(213)" clip-path="url(#a)"><path d="M181.457 447.414c-5.365-2.792-34.544-16.258-34.544-16.258s-3.769-5.674-2.464-8.692l-3.206-1.133-.982-9.015s3.309-4.286 5.377-13.164c0 0 1.88 1.335 3.37-5.516 1.229-5.652 1.512-8.767-.062-9.16 7.618-18.567-4.363-26.423-4.363-26.423-5.025-12.4-25.858-11.233-32.451-3.56-7 8.144-11.2 5.074-11.2 5.074-1.626 10.223-.343 18.266 2.36 24.553.029.309.05.475.05.475-2.911-.934-2.812 2.19-1.322 9.041s3.371 5.516 3.371 5.516c2.069 8.878 5.377 13.164 5.377 13.164l-.982 9.015-3.205 1.133c1.305 3.018-2.464 8.692-2.464 8.692s-29.179 13.466-34.544 16.258a7.741 7.741 0 00-4.526 7.83h120.936a7.741 7.741 0 00-4.526-7.83z" fill="#ffde1a" fill-rule="evenodd"/></g></g></svg>