<svg xmlns="http://www.w3.org/2000/svg" xmlns:xlink="http://www.w3.org/1999/xlink" width="122" height="122" viewBox="0 0 122 122">
  <defs>
    <clipPath id="clip-path">
      <circle cx="61" cy="61" r="61" transform="translate(65 333.244)" fill="#888"/>
    </clipPath>
  </defs>
  <g id="group_60" transform="translate(-278 -333.244)">
    <circle cx="61" cy="61" r="61" transform="translate(278 333.244)" fill="#ffe202" opacity="0.302"/>
    <g transform="translate(213)" clip-path="url(#clip-path)">
      <g transform="translate(65 348.719)">
        <path d="M192.043,402.675c-5.365-2.792-34.544-16.258-34.544-16.258s-3.769-5.674-2.464-8.692l-3.206-1.133-.982-9.015s3.309-4.286,5.377-13.164c0,0,1.88,1.335,3.37-5.516,1.229-5.652,1.512-8.767-.062-9.16,7.618-18.567-4.363-26.423-4.363-26.423-5.025-12.4-25.858-11.233-32.451-3.56-7,8.144-11.2,5.074-11.2,5.074-1.626,10.223-.343,18.266,2.36,24.553.029.309.05.475.05.475-2.911-.934-2.812,2.19-1.322,9.041s3.371,5.516,3.371,5.516c2.069,8.878,5.377,13.164,5.377,13.164l-.982,9.015-3.205,1.133c1.305,3.018-2.464,8.692-2.464,8.692s-29.179,13.466-34.544,16.258a7.741,7.741,0,0,0-4.526,7.83H196.569A7.741,7.741,0,0,0,192.043,402.675Z" transform="translate(-75.586 -303.98)" fill="#ffde1a" fill-rule="evenodd"/>
      </g>
    </g>
  </g>
</svg>
