<svg xmlns="http://www.w3.org/2000/svg" width="709" height="657" viewBox="0 0 709 657">
  <g id="tean-background" transform="translate(-632 -2203)">
    <circle id="Эллипс_18" data-name="Эллипс 18" cx="328.5" cy="328.5" r="328.5" transform="translate(632 2203)" fill="#ffde1a"/>
    <g id="Сгруппировать_30" data-name="Сгруппировать 30" transform="translate(982.985 2251.378)">
      <path id="Контур_374" data-name="Контур 374" d="M291.768,283.19H269.219l-16.761,13.541V283.19H234.55v38.983h17.908V313.11l6.879-5.351,11.847,14.414h22.767L272.878,297.55Z" transform="translate(-234.55 -283.19)" fill="#292929"/>
      <path id="Контур_375" data-name="Контур 375" d="M314.4,303.5c0,4.859-3.657,7.206-10.045,7.206-6.5,0-10.045-2.347-10.045-7.206V283.19H276.4v21.131c0,14.468,9.172,19.381,27.954,19.381,18.672,0,27.954-4.913,27.954-19.381V283.19H314.4Z" transform="translate(-218.644 -283.19)" fill="#292929"/>
      <g id="Сгруппировать_29" data-name="Сгруппировать 29" transform="translate(117.157 0.001)">
        <path id="Контур_358" data-name="Контур 358" d="M357.445,283.19h-38v38.984h17.907V312.018h20.093c12.775,0,17.361-4.532,17.361-14.305C374.806,287.776,370.22,283.19,357.445,283.19Zm-6.554,18.344H337.352v-7.206h13.539c2.9,0,4.315,1.2,4.315,3.6S353.732,301.534,350.891,301.534Z" transform="translate(-319.445 -283.19)" fill="#292929"/>
        <path id="Контур_359" data-name="Контур 359" d="M409.509,308.578v-.545c5.3-1.311,8.353-4.532,8.353-11.247,0-9.173-4.693-13.6-16.705-13.6H361.3v38.983h17.908v-9.936h12.612l6.333,9.936h20.693Zm-15.451-6.66h-14.85v-6.443h14.85c2.567,0,3.823,1.092,3.823,3.221S396.625,301.918,394.058,301.918Z" transform="translate(-303.54 -283.19)" fill="#292929"/>
      </g>
    </g>
    <g id="Компонент_1_1" data-name="Компонент 1 – 1" transform="translate(1099 2292)">
      <text id="team" transform="translate(121 43)" fill="#292929" font-size="54" font-family="SegoeUI, Segoe UI"><tspan x="-69.464" y="0">TEAM</tspan></text>
    </g>
  </g>
</svg>
