<svg xmlns="http://www.w3.org/2000/svg" width="64" height="63" viewBox="0 0 64 63">
  <g id="group_66" transform="translate(-145 -4081.5)">
    <ellipse cx="32" cy="31.5" rx="32" ry="31.5" transform="translate(145 4081.5)" fill="#292929"/>
    <path d="M401.578,286.311a2.92,2.92,0,0,0-2.055-2.054c-1.824-.5-9.119-.5-9.119-.5s-7.3,0-9.119.48a2.979,2.979,0,0,0-2.054,2.073,32.956,32.956,0,0,0,0,11.212,2.92,2.92,0,0,0,2.055,2.055c1.842.5,9.119.5,9.119.5s7.295,0,9.119-.48a2.919,2.919,0,0,0,2.055-2.054,30.794,30.794,0,0,0,.48-5.606A29.232,29.232,0,0,0,401.578,286.311Zm-13.5,9.1v-6.988l6.067,3.494Z" transform="translate(-213.5 3820.888)" fill="#fff"/>
  </g>
</svg>
