<svg xmlns="http://www.w3.org/2000/svg" width="64" height="63"><g transform="translate(-145 -4081.5)"><ellipse cx="32" cy="31.5" rx="32" ry="31.5" transform="translate(145 4081.5)"/><path d="M188.078 4107.199a2.92 2.92 0 00-2.055-2.054c-1.824-.5-9.119-.5-9.119-.5s-7.3 0-9.119.48a2.979 2.979 0 00-2.054 2.073 32.956 32.956 0 000 11.212 2.92 2.92 0 002.055 2.055c1.842.5 9.119.5 9.119.5s7.295 0 9.119-.48a2.919 2.919 0 002.055-2.054 30.794 30.794 0 00.48-5.606 29.232 29.232 0 00-.481-5.626zm-13.5 9.1v-6.988l6.067 3.494z" fill="#fff"/></g></svg>