<svg version="1.0" xmlns="http://www.w3.org/2000/svg" width="1365.333" height="1365.333" viewBox="0 0 1024 1024"><path d="M151.6 135.7c-.2.3-2 .7-3.8.9-7.4.7-10.8 1.4-20.6 3.9-15.9 4-32.1 10.7-44 18.2-2.9 1.8-5.5 3.3-5.7 3.3-.4 0-3.9 2.5-13 9.3-5.7 4.3-14.6 12.8-24.2 23.2-1.5 1.7-3.9 4.8-5.3 6.8s-2.8 3.7-3.2 3.7c-.5 0-.8.7-.8 1.5s-.4 1.5-1 1.5c-.5 0-1 .5-1 1 0 1.2-4 7.1-5.5 8.2-.5.4-.6.8-.2.8.5 0 0 1.2-1.1 2.7-2.7 3.9-9.5 18.5-12.2 26.3-1.2 3.6-2.5 7.2-2.8 8-1.3 3.6-5 20.8-5.9 27.5-1.5 11.1-.7 45.2 1.1 50.6.3.8.7 2.7 1 4.4.9 5.2 1.6 8.4 2.6 11 .5 1.4.8 2.5.5 2.5-.2 0 .4 2 1.5 4.5s1.6 4.5 1.3 4.5c-.4 0-.2.5.5 1.2s1.2 1.7 1.2 2.4 1 3.4 2.2 6.1c1.2 2.6 2.2 5 2.3 5.3.4 1.8 11.5 21.5 13.2 23.5.4.5 1.6 2.2 2.5 3.6.9 1.4 2.3 3.2 3 4 .7.8 2.6 3.1 4.1 5.2 4 5.4 16.1 17.5 23.2 23.3 3.3 2.7 6.2 5.1 6.5 5.4 1.6 1.7 20.6 13.1 27 16.2 14.6 7 33 13 44 14.4 2.4.3 4.8 1 5.1 1.6.4.7.9.7 1.3 0 .4-.6 1.7-.7 3.4-.3 3.4 1 11.2 1.4 22.7 1.4 12.4-.1 21.8-1.1 33.5-3.8 1.4-.3 3.7-.7 5.2-1 1.4-.2 3.6-.8 4.7-1.5 1.2-.6 2.1-.9 2.1-.6 0 .2 2.4-.5 5.3-1.5 2.8-1.1 6-2.2 7-2.4 4.3-.9 23.6-10.9 32.5-16.8 12.2-8.1 15.8-10.9 25.6-20.5 7.3-7.2 22.6-25.2 22.6-26.7 0-.4 1.4-2.7 3.1-5.2 6.5-9.7 16.8-33 18.4-41.6.4-2 1.1-3.7 1.7-3.7.5 0 .7-.3.5-.8-.3-.4.1-3.6.9-7.2s1.6-7.6 1.9-9c2.4-11.7 2.4-41.3-.1-53.1-.2-1.3-.7-4-1-5.9-.3-1.9-1-5.3-1.6-7.5-.6-2.2-1.1-4.5-1.3-5-.1-.6-.5-1.7-.8-2.5-.3-.8-1.3-4-2.3-7-4.9-15.8-16.6-37.5-27.9-51.6-3.4-4.3-19.4-20.5-24.4-24.7-5.4-4.7-26.5-18.6-27.3-18.1-.5.3-.8 0-.8-.5 0-.6-.4-1.1-1-1.1-.5 0-4.4-1.6-8.7-3.6-10.1-4.6-10.9-4.9-16.8-6.8-11.3-3.5-21.2-5.8-30.5-7.2-5.7-.8-39.7-1.4-40.4-.7zm684.9 0c-1.6.2-6.4 1-10.5 1.8s-8.7 1.7-10.2 1.9c-1.5.3-3.2.7-3.8 1.1-.5.3-2 .8-3.2 1-3 .6-11.7 3.4-15.3 5-1.6.7-5.9 2.5-9.5 4.1-3.6 1.5-7.2 3.3-8 4-.8.7-1.9 1.3-2.3 1.3-.7 0-4.4 2.2-12.8 7.6-2.9 1.8-7.4 4.9-7.9 5.5-.3.3-2.7 2.3-5.5 4.5-9.6 7.5-28.4 27.6-28.5 30.2 0 .7-.4 1.3-.8 1.3-1 0-8.4 11.3-10.9 16.5-.9 1.9-2 3.5-2.5 3.5-.4 0-.8.4-.8 1 0 .5-1.6 4.4-3.5 8.6-1.9 4.1-3.5 8.1-3.5 8.8 0 .6-.4 1.6-.9 2.1-.5.6-1.4 2.8-2.1 5-2.4 8.4-4 14.6-4.5 17.2-.3 1.6-.7 3.8-1 5-.3 1.3-.7 3.1-.9 4.2-2.5 10.9-2.4 43.1 0 54.6.3 1.1.6 3.1.8 4.5 1.2 7.7 7.2 27.1 10.7 34.4 1 2.2 1.9 4.3 1.9 4.7 0 .9 8.6 16.5 11.8 21.4 2.4 3.7 11.4 15.5 13.7 18.1 8.4 9.5 16.9 17.4 27 25.2 12 9.4 37.8 22.6 50 25.6.6.2 1.7.6 2.5.9.8.3 2.9.9 4.5 1.3 1.7.4 3.5.8 4 1 6.5 1.6 10 2.2 10.7 1.8.4-.3.8-.2.8.3 0 .4 1.7.9 3.8 1 2 .1 5.1.4 6.7.8 6.5 1.4 41.9.6 44.6-1 .4-.3 2.4-.7 4.5-1 12.7-1.9 34-9.2 47.4-16.3 6.1-3.2 18.9-11 20-12.2.3-.3 2.3-1.9 4.5-3.5s4.9-3.6 5.9-4.5c3.7-2.9 18.1-17.5 22.1-22.4 2.2-2.7 4.6-5.5 5.3-6.2.7-.8 1-1.4.5-1.4-.4 0-.3-.4.2-.8 1.1-.8 8.1-11.1 10.3-15.2 3.2-5.9 6.6-12.5 6.7-13 .1-.3.9-2.3 1.9-4.5 3.7-8.3 9-25.4 10.3-33 2.6-15.7 3-20.8 2.8-35.5-.2-15.8-.6-20.1-2.6-30-.5-2.5-1.2-5.8-1.5-7.4-2.4-12.5-14-39.2-22.4-51.8-2.2-3.3-4-6.2-4-6.5 0-.2-.6-1-1.2-1.7-.7-.7-2.4-2.8-3.8-4.6-8.6-11.4-25.7-27.6-36.6-34.7-1.1-.7-3.6-2.4-5.7-3.8s-4.2-2.5-4.7-2.5c-.4 0-1-.4-1.2-.8-.7-1.7-33.8-16.5-36.1-16.1-.1 0-.9-.2-1.7-.4-3.3-1.1-15.7-3.9-19-4.3-1.9-.3-5.1-.8-7-1.1-3.9-.6-34.9-1.1-39.5-.6zm-678.8 416c-.1.1-3.3.4-7.2.8-7.3.7-20.1 3.3-29.5 6.1-3 .8-6.5 1.8-7.8 2.1-1.2.3-2.5.9-2.8 1.4-.3.5-1.2.9-2.1.9-2 0-22.7 10-23.1 11.1-.2.5-.8.7-1.3.3-.5-.3-.9 0-.9.5 0 .6-.6 1.1-1.3 1.1-.7 0-2.3.9-3.5 2-1.2 1.1-2.4 2-2.7 2-.5 0-9.8 6.6-14.4 10.4-4.5 3.7-19.5 18.9-23.1 23.5-1.9 2.4-4 4.8-4.5 5.5-3.2 3.5-18.3 29-18.5 31.1 0 .3-1 2.6-2.1 5.2-1.2 2.7-2.2 5.5-2.4 6.3-.2.8-1.2 3.9-2.4 6.7-1.1 2.9-1.8 5.3-1.6 5.3.3 0 .1.8-.4 1.8-.9 1.7-3.2 12.3-4.7 21.7-1 6.1-1 41.5 0 47 3.7 21 8.7 36.6 16.9 52.5 2.7 5.2 5.5 10.5 6.1 11.7.6 1.3 1.4 2.3 1.9 2.3.4 0 .7.5.7 1.1 0 2 13.5 19.1 21.4 27.1 6.2 6.3 13.5 12.5 24.1 20.6 5.7 4.3 25.1 14.7 34 18.2 4 1.6 6 2.3 6.7 2.4.3.1 1 .4 1.4.8.4.5 1.7.8 2.9.8 1.1 0 2.6.5 3.3 1.2.7.7 1.2.9 1.2.5 0-.3 1.9 0 4.2.9 2.2.8 4.3 1.2 4.6 1 .2-.3 1.6 0 3 .5s3.9 1.2 5.6 1.4c1.7.2 5.6.8 8.6 1.2 10.9 1.6 44.5.8 50-1.1.8-.3 3.3-.8 5.5-1.1 9.5-1.3 27.5-7.5 40.5-14 8.6-4.2 22.1-12.2 23-13.5.3-.4 1.2-1.1 2.1-1.6 8-4.5 29.2-25.9 38.1-38.5 3.7-5.2 9.3-14.6 12.5-20.9 5.5-11 6.7-13.7 9.1-20.5.5-1.7 1.3-3.9 1.8-5 .4-1.1.8-2.5.9-3 .2-.6 1-3.7 1.8-7 3.8-14.6 5.1-25.6 4.9-42.5-.2-31.8-6.8-56.2-23.2-85.8-4.2-7.4-17.5-24.5-25.5-32.5-8.2-8.3-20.7-18.7-22.4-18.7-.6 0-1.1-.5-1.1-1 0-.6-.7-1-1.5-1s-1.5-.4-1.5-.8c0-1.3-21.3-13.2-23.7-13.2-.7 0-1.3-.4-1.3-.9s-1-1.1-2.2-1.4c-1.3-.2-6.1-1.9-10.8-3.6-4.6-1.7-9.3-3.3-10.5-3.5-1.1-.2-4-.9-6.5-1.6-2.5-.7-5.2-1.3-6-1.5-3-.5-12.6-1.9-16-2.2-3.8-.4-28-.9-28.3-.6zm685-.1c-.1.1-2.9.5-6.2.8-18.8 2.1-37.3 7.4-56.5 16.4-1.9.9-3.7 1.9-4 2.2-.3.3-1.8 1.1-3.3 1.8-4.9 2.1-19.9 12.4-26.7 18.2-10.8 9.4-18 17-25.8 27-2.3 3-4.6 6-5.1 6.6-.4.5-1.4 2.1-2.1 3.5-.7 1.3-1.6 2.6-1.9 2.9-.8.6-11.4 20.8-11.6 22 0 .3-.4 1-.8 1.7-1 1.6-8.3 23.9-9.1 27.8-1.9 10-2.4 12.7-3.2 20-1 7.9-.9 29.4 0 37 .4 3.3.9 7.3 1.1 9 .2 1.6.8 4.2 1.4 5.6.5 1.5.8 2.9.5 3.2-.2.2 0 1.6.6 3.1.5 1.5 1.2 3.7 1.4 4.9 1.5 7.9 12.8 34.6 17.8 42.1.7 1.1 3.2 4.8 5.5 8.4 2.3 3.5 5.5 8 7 9.9 6.1 7.7 20.2 21.7 27.8 27.6 4.4 3.4 8.2 6.5 8.3 6.9.2.4.7.8 1.2.8s4.4 2.2 8.7 4.8c7.9 4.9 16.6 9.2 23.8 11.9 2.2.8 4.9 1.9 6 2.3 4.2 1.7 6.1 2.3 8.4 2.7 1.4.2 3.2.8 4 1.2 1.4.8 5.5 1.7 15.6 3.6 8.3 1.6 14.4 2 29 2 20 0 27.6-.9 43.4-5.1 33.3-9 62.7-27.3 85.5-53.4 2.6-2.9 13-17.4 16.4-22.5 5.8-9.2 17.8-38 18.7-45.1.2-1.2.8-3 1.4-4.1.5-1.1.8-2.2.6-2.5-.3-.2 0-2 .5-3.9 3.5-12.1 3.4-48-.1-64.9-.5-2.5-1.2-5.6-1.5-7-1.9-9.2-12.8-37.7-15.4-40-.3-.3-1.5-2.5-2.8-5-6.4-12.7-26.6-36.3-40.1-47-8.6-6.9-21.8-15.2-31.8-20.1-18.6-9.1-35.5-14-56.8-16.5-4.8-.5-29.3-1.2-29.8-.8z"/></svg>